SplineFontDB: 3.2
FontName: sachacHand-Bold
FullName: sachacHand Bold
FamilyName: sachacHand
Weight: Regular
Copyright: Copyright (c) 2020, Sacha Chua
UComments: "2020-6-9: Created with FontForge (http://fontforge.org)"
Version: 001.000
ItalicAngle: 0
UnderlinePosition: -100
UnderlineWidth: 50
Ascent: 800
Descent: 200
InvalidEm: 0
LayerCount: 2
Layer: 0 0 "Back" 1
Layer: 1 0 "Fore" 0
XUID: [1021 589 -13552871 12410048]
OS2Version: 0
OS2_WeightWidthSlopeOnly: 0
OS2_UseTypoMetrics: 1
CreationTime: 1591760722
ModificationTime: 1592019980
OS2TypoAscent: 0
OS2TypoAOffset: 1
OS2TypoDescent: 0
OS2TypoDOffset: 1
OS2TypoLinegap: 0
OS2WinAscent: 0
OS2WinAOffset: 1
OS2WinDescent: 0
OS2WinDOffset: 1
HheadAscent: 0
HheadAOffset: 1
HheadDescent: 0
HheadDOffset: 1
OS2Vendor: 'PfEd'
Lookup: 3 0 0 "alt-2" { "alt-2-1"  } ['aalt' ('DFLT' <'dflt' > 'latn' <'dflt' > ) ]
Lookup: 1 0 0 "alt" { "alt-1"  } ['    ' ('DFLT' <'dflt' > 'latn' <'dflt' > ) ]
Lookup: 258 0 0 "kern" { "kern-2"  "kern-1"  } ['kern' ('latn' <'dflt' > ) ]
MarkAttachClasses: 1
DEI: 91125
KernClass2: 18 13 "kern-1"
 1 f
 1 t
 1 i
 1 r
 1 k
 1 l
 1 v
 5 b o p
 3 n m
 1 a
 1 W
 1 T
 1 F
 1 P
 1 g
 9 q d h y j
 13 c e s u w x z
 15 o a c e d g q w
 3 f t
 5 x v z
 7 h b l i
 1 j
 9 m n p r u
 1 k
 1 y
 1 s
 1 T
 1 F
 4 zero

StartChar: H
Encoding: 72 72 0
Width: 431
VWidth: 0
Flags: HW
LayerCount: 2
Back
Fore
SplineSet
99.5556640625 336 m 1
 99.5556640625 288 103.555664062 240 103.555664062 192 c 0
 103.555664062 132 106.555664062 73 110.555664062 14 c 0
 111.555664062 -4 102.555664062 -23 81.5556640625 -22 c 0
 51.5556640625 -20 52.5556640625 17 50.5556640625 39 c 0
 43.5556640625 106 43.5556640625 175 41.5556640625 242 c 0
 38.5556640625 346 39.5556640625 452 47.5556640625 556 c 0
 49.5556640625 582 37.5556640625 645 67.5556640625 655 c 0
 99.5556640625 665 105.555664062 628 104.555664062 606 c 0
 101.555664062 534 99.5556640625 462 99.5556640625 390 c 1
 331.555664062 384 l 1
 331.555664062 457 333.555664062 530 330.555664062 603 c 0
 329.555664062 625 335.555664062 659 365.555664062 651 c 0
 385.555664062 646 385.555664062 627 385.555664062 610 c 0
 385.555664062 574 390.555664062 537 390.555664062 501 c 0
 390.555664062 380 388.555664062 259 383.555664062 138 c 0
 382.555664062 104 379.555664062 70 377.555664062 36 c 0
 376.555664062 22 381.555664062 7 374.555664062 -6 c 0
 361.555664062 -30 326.555664062 -19 323.555664062 6 c 0
 319.555664062 33 325.555664062 59 325.555664062 86 c 0
 326.555664062 119 323.555664062 153 326.555664062 186 c 0
 330.555664062 233 329.555664062 281 329.555664062 328 c 1
 299.555664062 322 263.555664062 326 233.555664062 328 c 0
 188.555664062 330 144.555664062 331 99.5556640625 336 c 1
EndSplineSet
EndChar

StartChar: e
Encoding: 101 101 1
Width: 449
VWidth: 0
Flags: HW
LayerCount: 2
Back
Fore
SplineSet
99.486328125 172 m 5
 103.486328125 152 107.486328125 135 120.486328125 118 c 4
 154.486328125 74 243.486328125 46 297.486328125 60 c 4
 326.486328125 68 343.486328125 90 369.486328125 102 c 4
 387.486328125 110 409.486328125 97 408.486328125 77 c 4
 406.486328125 45 351.486328125 18 325.486328125 9 c 4
 243.486328125 -18 118.486328125 16 67.486328125 88 c 4
 4.486328125 178 56.486328125 329 155.486328125 371 c 4
 201.486328125 391 255.486328125 381 297.486328125 356 c 4
 307.486328125 350 315.486328125 344 323.486328125 336 c 4
 352.486328125 307 401.486328125 236 357.486328125 199 c 4
 341.486328125 185 315.486328125 181 295.486328125 178 c 4
 254.486328125 171 212.486328125 170 171.486328125 168 c 4
 148.486328125 167 121.486328125 164 99.486328125 172 c 5
109.486328125 228 m 5
 132.486328125 218 160.486328125 222 185.486328125 224 c 4
 227.486328125 227 275.486328125 225 315.486328125 242 c 5
 296.486328125 293 237.486328125 339 181.486328125 317 c 4
 160.486328125 309 142.486328125 288 129.486328125 270 c 4
 120.486328125 257 113.486328125 243 109.486328125 228 c 5
EndSplineSet
EndChar

StartChar: n
Encoding: 110 110 2
Width: 464
VWidth: 0
Flags: HW
LayerCount: 2
Back
Fore
SplineSet
60.6669921875 144 m 1024
399.666992188 60 m 1024
342.666992188 21 m 1024
317.666992188 256 m 1024
165.666992188 266 m 1024
119.666992188 306 m 1
 152.666992188 394 265.600442968 403.928779272 327.666992188 346 c 0
 402.666992188 276 411.179774825 155.939855305 399.666992188 60 c 0
 396.666992188 35 407.063713171 27.6760651804 390.666992188 8 c 0
 375.666992188 -10 345.063359075 -2.96366887066 342.666992188 21 c 0
 339.666992188 51 343.666992188 48 345.666992188 78 c 0
 349.666992188 138 346.391099329 202.381666671 317.666992188 256 c 0
 302.666992188 284 278.673986563 321.082750469 243.666992188 324 c 0
 207.666992188 327 177.262544866 296.042356068 165.666992188 266 c 0
 151 228 124 141 124.666992188 60 c 0
 124.848227654 37.990637622 130.063524529 4.59147105898 105.666992188 1 c 0
 45.990234375 -7.78515625 60.2744140625 61.1123046875 62 87 c 0
 64.3330078125 122 64.1767578125 108.974609375 65.6669921875 144 c 0
 67.6669921875 191 65.710389285 240.001866757 63.6669921875 287 c 0
 62.6669921875 310 52.6669921875 359 70.6669921875 377 c 0
 83.6669921875 390 106.009150851 386.166553933 113.666992188 370 c 0
 122.666992188 351 113.666992188 326 119.666992188 306 c 1
EndSplineSet
EndChar

StartChar: A
Encoding: 65 65 3
Width: 658
VWidth: 0
Flags: HW
LayerCount: 2
Back
Fore
SplineSet
414 130 m 1
 385 69 321 18 262 -12 c 0
 235 -26 203 -37 172 -30 c 0
 128 -20 94 19 74 58 c 0
 47 108 40 166 40 222 c 0
 40 326 62 431 124 516 c 0
 149 550 180 580 216 604 c 0
 242 621 270 634 300 641 c 0
 321 646 342 648 363 646 c 0
 462 638 491 537 489 451 c 0
 489 431 483 412 482 392 c 0
 481 368 480 343 478 319 c 0
 476 298 467 277 466 256 c 0
 464 222 464 187 469 154 c 0
 475 119 495 54 539 50 c 0
 559 48 576 65 596 62 c 0
 613 59 622 40 616 24 c 0
 609 6 579 -1 562 -4 c 0
 508 -15 461 24 437 70 c 0
 427 89 422 110 414 130 c 1
329 589 m 0
 167 564 86 363 99 216 c 0
 104 162 107 112 139 66 c 0
 153 46 173 25 199 28 c 0
 230 31 262 54 286 73 c 0
 349 121 395 198 408 276 c 0
 415 316 410 358 414 398 c 0
 415 411 417 425 422 438 c 0
 425 446 433 452 434 460 c 0
 439 492 426 558 398 578 c 0
 380 591 350 592 329 589 c 0
EndSplineSet
EndChar

StartChar: M
Encoding: 77 77 4
Width: 599
VWidth: 0
Flags: HW
LayerCount: 2
Back
Fore
SplineSet
276.16015625 400 m 1
 304.16015625 445 343.16015625 486 376.16015625 528 c 0
 405.16015625 566 436.16015625 604 470.16015625 638 c 0
 483.16015625 651 499.16015625 671 520.16015625 664 c 0
 562.16015625 651 550.16015625 569 550.16015625 536 c 0
 550.16015625 402 545.16015625 269 550.16015625 135 c 0
 552.16015625 87 559.16015625 39 559.16015625 -9 c 0
 559.16015625 -23 550.16015625 -34 537.16015625 -37 c 0
 497.16015625 -45 499.16015625 23 497.16015625 47 c 0
 488.16015625 143 490.16015625 240 486.16015625 337 c 0
 483.16015625 415 490.16015625 492 490.16015625 570 c 1
 437.16015625 509 388.16015625 445 337.16015625 382 c 0
 322.16015625 363 299.16015625 324 270.16015625 329 c 0
 244.16015625 334 226.16015625 366 213.16015625 386 c 0
 181.16015625 435 147.16015625 486 112.16015625 532 c 1
 106.16015625 490 109.16015625 445 107.16015625 402 c 0
 102.16015625 308 100.16015625 215 99.16015625 121 c 0
 99.16015625 89 102.16015625 54 97.16015625 22 c 0
 95.16015625 8 86.16015625 -4 71.16015625 -5 c 0
 55.16015625 -6 43.16015625 7 42.16015625 22 c 0
 39.16015625 62 40.16015625 102 40.16015625 142 c 0
 40.16015625 273 53.16015625 402 55.16015625 533 c 0
 56.16015625 564 52.16015625 603 59.16015625 634 c 0
 62.16015625 645 70.16015625 653 81.16015625 655 c 0
 94.16015625 657 111.16015625 648 119.16015625 638 c 0
 128.16015625 626 133.16015625 609 140.16015625 596 c 0
 155.16015625 569 172.16015625 544 189.16015625 518 c 0
 216.16015625 478 250.16015625 442 274.16015625 400 c 1
 276.16015625 400 l 1
110.16015625 534 m 1
 112.16015625 532 l 1
 110.16015625 534 l 1
EndSplineSet
EndChar

StartChar: Y
Encoding: 89 89 5
Width: 470
VWidth: 0
Flags: HW
LayerCount: 2
Back
Fore
SplineSet
345.154296875 404 m 1
 323.154296875 371 303.154296875 342 273.154296875 316 c 0
 259.154296875 304 244.154296875 293 227.154296875 286 c 0
 213.154296875 280 198.154296875 276 183.154296875 277 c 0
 74.154296875 281 46.154296875 413 41.154296875 500 c 0
 39.154296875 538 40.154296875 574 41.154296875 612 c 0
 42.154296875 627 40.154296875 650 52.154296875 661 c 0
 69.154296875 677 96.154296875 663 98.154296875 641 c 0
 100.154296875 615 94.154296875 588 94.154296875 562 c 0
 94.154296875 515 100.154296875 470 110.154296875 424 c 0
 118.154296875 390 138.154296875 347 175.154296875 337 c 0
 205.154296875 329 238.154296875 361 256.154296875 382 c 0
 307.154296875 440 341.154296875 521 354.154296875 596 c 0
 358.154296875 623 371.154296875 689 413.154296875 667 c 0
 431.154296875 658 431.154296875 637 428.154296875 620 c 0
 422.154296875 580 406.154296875 544 405.154296875 504 c 0
 402.154296875 385 426.154296875 268 422.154296875 150 c 0
 420.154296875 96 412.154296875 37 361.154296875 6 c 0
 296.154296875 -33 199.154296875 2 133.154296875 22 c 0
 110.154296875 29 53.154296875 38 69.154296875 74 c 0
 81.154296875 101 117.154296875 86 137.154296875 79 c 0
 182.154296875 65 231.154296875 48 279.154296875 48 c 0
 293.154296875 48 310.154296875 46 323.154296875 52 c 0
 359.154296875 68 361.154296875 110 363.154296875 143 c 0
 367.154296875 230 353.154296875 318 345.154296875 404 c 1
EndSplineSet
EndChar

StartChar: eight
Encoding: 56 56 6
Width: 391
VWidth: 0
Flags: HW
LayerCount: 2
Back
Fore
SplineSet
208.65234375 298 m 1
 230.65234375 279 247.65234375 250 263.65234375 226 c 0
 303.65234375 166 345.65234375 102 318.65234375 28 c 0
 306.65234375 -3 275.65234375 -14 244.65234375 -16 c 0
 192.65234375 -19 132.65234375 -11 100.65234375 36 c 0
 62.65234375 92 70.65234375 167 95.65234375 226 c 0
 102.65234375 243 110.65234375 260 120.65234375 276 c 0
 124.65234375 282 132.65234375 290 131.65234375 298 c 0
 128.65234375 318 99.65234375 346 89.65234375 364 c 0
 54.65234375 426 23.65234375 499 49.65234375 570 c 0
 79.65234375 652 164.65234375 678 240.65234375 647 c 0
 264.65234375 637 292.65234375 621 302.65234375 596 c 1
 358.65234375 611 355.65234375 548 344.65234375 510 c 0
 328.65234375 452 292.65234375 403 255.65234375 356 c 0
 240.65234375 338 226.65234375 316 208.65234375 300 c 1
 208.65234375 298 l 1
170.65234375 346 m 1
 193.65234375 363 212.65234375 393 229.65234375 416 c 0
 243.65234375 434 267.65234375 459 272.65234375 482 c 0
 274.65234375 491 267.65234375 500 266.65234375 509 c 0
 264.65234375 531 266.65234375 556 251.65234375 574 c 0
 224.65234375 605 166.65234375 616 132.65234375 591 c 0
 109.65234375 574 98.65234375 545 96.65234375 517 c 0
 95.65234375 493 105.65234375 468 114.65234375 446 c 0
 129.65234375 410 151.65234375 380 170.65234375 346 c 1
172.65234375 248 m 1
 141.65234375 201 110.65234375 116 152.65234375 66 c 0
 171.65234375 43 258.65234375 23 267.65234375 64 c 0
 276.65234375 105 242.65234375 150 221.65234375 182 c 0
 207.65234375 204 192.65234375 231 172.65234375 248 c 1
EndSplineSet
EndChar

StartChar: quotesingle
Encoding: 39 39 7
Width: 150
VWidth: 0
Flags: HW
LayerCount: 2
Back
Fore
SplineSet
58 659 m 0
 78 665 95 650 101 632 c 0
 112 600 113 556 104 524 c 0
 100 509 94 494 78 490 c 0
 64 486 49 495 45 509 c 0
 42 520 47 531 48 542 c 0
 50 560 49 579 49 597 c 0
 49 610 40 619 40 632 c 0
 40 644 46 655 58 659 c 0
EndSplineSet
EndChar

StartChar: numbersign
Encoding: 35 35 8
Width: 535
VWidth: 0
Flags: HW
LayerCount: 2
Back
Fore
SplineSet
295.817382812 488 m 1
 295.817382812 514 283.817382812 554 293.817382812 578 c 0
 301.817382812 597 330.817382812 600 341.817382812 582 c 0
 350.817382812 567 349.817382812 535 350.817382812 518 c 0
 351.817382812 511 349.817382812 498 354.817382812 493 c 0
 360.817382812 487 375.817382812 490 383.817382812 490 c 0
 402.817382812 490 428.817382812 490 445.817382812 480 c 0
 464.817382812 468 462.817382812 440 441.817382812 431 c 0
 430.817382812 426 416.817382812 431 405.817382812 432 c 0
 388.817382812 434 371.817382812 430 355.817382812 432 c 1
 353.817382812 430 l 1
 363.817382812 395 353.817382812 350 353.817382812 314 c 1
 391.817382812 315 439.817382812 325 475.817382812 313 c 0
 496.817382812 306 501.817382812 278 483.817382812 265 c 0
 472.817382812 257 453.817382812 259 439.817382812 259 c 0
 411.817382812 258 378.817382812 259 351.817382812 252 c 1
 355.817382812 238 355.817382812 209 348.817382812 196 c 0
 339.817382812 181 317.817382812 177 305.817382812 190 c 0
 290.817382812 205 298.817382812 233 293.817382812 252 c 1
 229.817382812 248 l 1
 235.817382812 227 239.817382812 182 210.817382812 177 c 0
 176.817382812 172 170.817382812 222 173.817382812 246 c 1
 147.817382812 246 121.817382812 244 95.8173828125 243 c 0
 84.8173828125 243 71.8173828125 240 61.8173828125 247 c 0
 45.8173828125 259 49.8173828125 286 67.8173828125 294 c 0
 94.8173828125 305 140.817382812 302 169.817382812 302 c 1
 161.817382812 426 l 1
 137.817382812 419 83.8173828125 415 59.8173828125 424 c 0
 40.8173828125 431 32.8173828125 455 47.8173828125 470 c 0
 57.8173828125 480 72.8173828125 477 85.8173828125 477 c 0
 110.817382812 477 134.817382812 481 159.817382812 482 c 1
 159.817382812 505 147.817382812 541 158.817382812 562 c 0
 168.817382812 581 195.817382812 584 206.817382812 564 c 0
 216.817382812 545 214.817382812 508 215.817382812 486 c 1
 295.817382812 488 l 1
221.817382812 428 m 1
 219.817382812 426 l 1
 227.817382812 306 l 1
 293.817382812 310 l 1
 295.817382812 430 l 1
 221.817382812 428 l 1
EndSplineSet
EndChar

StartChar: less
Encoding: 60 60 9
Width: 375
VWidth: 0
Flags: HW
LayerCount: 2
Back
Fore
SplineSet
106.1171875 318 m 1
 139.1171875 295 170.1171875 274 206.1171875 256 c 0
 227.1171875 246 247.1171875 234 268.1171875 224 c 0
 288.1171875 214 318.1171875 201 330.1171875 182 c 0
 342.1171875 164 328.1171875 141 308.1171875 140 c 0
 286.1171875 139 261.1171875 164 242.1171875 173 c 0
 189.1171875 200 131.1171875 221 84.1171875 258 c 0
 66.1171875 272 42.1171875 290 40.1171875 315 c 0
 38.1171875 340 62.1171875 360 77.1171875 378 c 0
 117.1171875 426 161.1171875 469 202.1171875 516 c 0
 216.1171875 533 233.1171875 566 254.1171875 574 c 0
 273.1171875 582 295.1171875 565 291.1171875 544 c 0
 286.1171875 518 256.1171875 492 239.1171875 472 c 0
 222.1171875 451 205.1171875 431 187.1171875 411 c 0
 160.1171875 380 134.1171875 347 106.1171875 318 c 1
EndSplineSet
EndChar

StartChar: O
Encoding: 79 79 10
Width: 518
VWidth: 0
Flags: HWO
LayerCount: 2
Back
Fore
SplineSet
178.192382812 593.400390625 m 5
 160.912109375 593.400390625 132.112304688 592.549804688 118.671875 602.75 c 4
 95.6318359375 619.75 117.711914062 643.549804688 141.711914062 642.700195312 c 4
 163.791992188 641.849609375 188.751953125 635.049804688 210.83203125 637.599609375 c 4
 225.232421875 639.299804688 234.83203125 650.349609375 251.15234375 644.400390625 c 4
 262.671875 640.150390625 263.631835938 628.25 274.192382812 624 c 4
 334.671875 597.650390625 388.432617188 573.849609375 424.912109375 520.299804688 c 4
 453.711914062 477.799804688 463.3125 428.5 468.112304688 379.200195312 c 4
 478.671875 267.849609375 466.192382812 125.900390625 366.352539062 45.150390625 c 4
 276.112304688 -27.9501953125 113.872070312 2.650390625 68.751953125 103.799804688 c 4
 33.232421875 184.549804688 57.232421875 285.700195312 77.392578125 367.299804688 c 4
 97.5517578125 448.900390625 138.83203125 518.599609375 178.192382812 593.400390625 c 5
234.83203125 581.5 m 4
 226.192382812 577.25 220.432617188 563.650390625 215.631835938 556 c 4
 201.232421875 533.049804688 188.751953125 508.400390625 177.232421875 484.599609375 c 4
 141.711914062 411.5 121.551757812 334.150390625 112.912109375 255.099609375 c 4
 109.072265625 217.700195312 106.192382812 180.299804688 114.83203125 142.900390625 c 4
 119.631835938 123.349609375 129.232421875 101.25 145.551757812 86.7998046875 c 4
 180.112304688 57.0498046875 256.912109375 45.150390625 301.072265625 64.7001953125 c 4
 339.47265625 81.7001953125 368.272460938 125.900390625 383.631835938 159.900390625 c 4
 413.392578125 226.200195312 418.192382812 296.75 412.432617188 367.299804688 c 4
 409.551757812 401.299804688 405.711914062 435.299804688 391.3125 467.599609375 c 4
 371.15234375 512.650390625 333.711914062 544.099609375 285.711914062 567.049804688 c 4
 276.112304688 572.150390625 245.392578125 586.599609375 234.83203125 581.5 c 4
EndSplineSet
EndChar

StartChar: b
Encoding: 98 98 11
Width: 413
VWidth: 0
Flags: HW
LayerCount: 2
Back
Fore
SplineSet
115.114257812 351.11328125 m 1
 143.009765625 365.088867188 164.708007812 377.419921875 197.772460938 381.529296875 c 0
 272.1640625 389.750976562 340.357421875 349.469726562 364.122070312 295.211914062 c 0
 399.251953125 215.470703125 386.853515625 65.515625 284.563476562 19.4794921875 c 0
 231.868164062 -4.3603515625 159.541992188 9.6142578125 104.782226562 20.3017578125 c 0
 87.216796875 23.58984375 55.1865234375 28.521484375 44.853515625 41.67578125 c 0
 32.4560546875 57.294921875 51.0537109375 65.515625 52.0869140625 79.490234375 c 0
 55.8847874025 152.015974413 50.6252540359 213.730515407 56.21875 289.45703125 c 0
 61.3857421875 358.51171875 55.1865234375 403.387695312 55.1865234375 472.442382812 c 0
 55.1865234375 501.21484375 54.1533203125 530.810546875 50.021484375 559.583007812 c 0
 47.9541015625 571.9140625 40.720703125 590.821289062 47.9541015625 602.331054688 c 0
 64.4853515625 627.815429688 99.615234375 613.017578125 103.748046875 589.999023438 c 0
 113.047851562 529.166015625 115.114257812 490.043945312 115.114257812 428.387695312 c 0
 115.114257812 403.725585938 121.313476562 374.954101562 115.114257812 351.11328125 c 1
209.137695312 333.849609375 m 0
 171.94140625 329.740234375 138.413085938 300.322265625 126.146484375 283.727539062 c 0
 107.102539062 257.963867188 108.190996662 125.11455338 114.080078125 86.0673828125 c 0
 115.114257812 81.134765625 113.047851562 71.2705078125 117.180664062 67.16015625 c 0
 122.346679688 62.2275390625 137.844726562 62.2275390625 145.077148438 60.5830078125 c 0
 170.908203125 55.650390625 200.87109375 51.5400390625 227.735351562 54.005859375 c 0
 263.899414062 57.294921875 288.6953125 80.3125 302.12890625 105.796875 c 0
 325.893554688 150.189453125 328.9921875 235.201171875 306.26171875 280.415039062 c 0
 290.762695312 310.831054688 253.56640625 338.782226562 209.137695312 333.849609375 c 0
EndSplineSet
EndChar

StartChar: r
Encoding: 114 114 12
Width: 400
VWidth: 0
Flags: HW
LayerCount: 2
Back
Fore
SplineSet
101.111328125 324 m 1
 129.111328125 384 225.111328125 390 285.111328125 389 c 4
 309.111328125 388 354.111328125 375 360.111328125 348 c 4
 363.111328125 331 349.111328125 316 333.111328125 316 c 4
 316.111328125 315 303.111328125 330 287.111328125 332 c 4
 245.111328125 338 188.111328125 332 159.111328125 302 c 0
 87.111328125 226 112.111328125 121 111.111328125 28 c 0
 111.111328125 5 87.111328125 -14 65.111328125 0 c 0
 42.111328125 15 46.111328125 65 46.111328125 89 c 0
 45.111328125 149 46.111328125 209 46.111328125 269 c 0
 46.111328125 298 39.111328125 333 46.111328125 362 c 0
 52.111328125 386 85.111328125 392 97.111328125 370 c 0
 105.111328125 356 97.111328125 339 101.111328125 324 c 1
EndSplineSet
EndChar

StartChar: B
Encoding: 66 66 13
Width: 459
VWidth: 0
Flags: HW
LayerCount: 2
Back
Fore
SplineSet
105.205078125 44 m 1
 90.205078125 93 95.205078125 153 93.205078125 204 c 0
 89.205078125 309 93.205078125 413 93.205078125 518 c 0
 93.205078125 546 97.205078125 576 95.205078125 604 c 0
 94.205078125 613 86.205078125 616 82.205078125 624 c 0
 72.205078125 645 89.205078125 661 105.205078125 671 c 0
 216.205078125 740 374.205078125 678 376.205078125 538 c 0
 377.205078125 477 340.205078125 425 299.205078125 384 c 1
 369.205078125 378 416.205078125 317 419.205078125 250 c 0
 422.205078125 169 389.205078125 88 321.205078125 40 c 0
 275.205078125 8 223.205078125 -6 170.205078125 -16 c 0
 158.205078125 -18 151.205078125 -30 137.205078125 -29 c 0
 124.205078125 -28 118.205078125 -17 107.205078125 -13 c 0
 87.205078125 -7 54.205078125 -6 43.205078125 14 c 0
 34.205078125 30 45.205078125 50 63.205078125 53 c 0
 77.205078125 55 92.205078125 48 105.205078125 44 c 1
151.205078125 370 m 1
 169.205078125 380 189.205078125 384 207.205078125 393 c 0
 256.205078125 418 308.205078125 465 317.205078125 522 c 0
 329.205078125 592 268.205078125 651 199.205078125 644 c 0
 186.205078125 643 167.205078125 642 156.205078125 634 c 0
 145.205078125 625 150.205078125 584 150.205078125 570 c 0
 150.205078125 525 149.205078125 481 149.205078125 436 c 0
 149.205078125 415 145.205078125 390 151.205078125 370 c 1
149.205078125 304 m 1
 157.205078125 108 l 1
 163.205078125 40 l 1
 231.205078125 56 294.205078125 75 333.205078125 138 c 0
 360.205078125 181 379.205078125 262 337.205078125 304 c 0
 317.205078125 324 278.205078125 332 251.205078125 332 c 0
 214.205078125 333 184.205078125 314 149.205078125 304 c 1
EndSplineSet
EndChar

StartChar: N
Encoding: 78 78 14
Width: 486
VWidth: 0
Flags: HW
LayerCount: 2
Back
Fore
SplineSet
102 524 m 1
 107 451 105 377 103 304 c 0
 102 255 100 205 100 156 c 0
 100 104 106 45 96 -6 c 0
 92 -29 60 -40 46 -18 c 0
 39 -7 41 13 41 26 c 2
 40 123 l 2
 40 247 46 372 46 496 c 0
 46 539 47 581 44 624 c 0
 43 640 41 660 62 665 c 0
 87 671 90 652 100 637 c 0
 118 611 133 584 149 556 c 0
 195 472 249 393 299 312 c 0
 325 270 347 225 372 182 c 1
 378 247 371 313 377 378 c 0
 381 420 384 463 385 505 c 0
 386 537 388 568 388 600 c 0
 388 613 381 627 385 640 c 0
 392 664 424 664 435 644 c 0
 455 607 442 550 442 510 c 0
 442 393 431 276 433 159 c 0
 434 120 440 80 433 42 c 0
 430 24 422 6 402 4 c 0
 367 0 358 53 349 78 c 0
 317 167 269 246 220 326 c 0
 192 371 163 416 137 462 c 0
 126 482 111 502 104 524 c 1
 102 524 l 1
372 182 m 1
 374 180 l 1
 372 182 l 1
EndSplineSet
EndChar

StartChar: Z
Encoding: 90 90 15
Width: 512
VWidth: 0
Flags: HW
LayerCount: 2
Back
Fore
SplineSet
392.418945312 612 m 1
 349.418945312 614 305.418945312 617 262.418945312 620 c 0
 234.418945312 622 205.418945312 626 177.418945312 629 c 0
 150.418945312 632 108.418945312 630 86.4189453125 646 c 0
 69.4189453125 659 70.4189453125 690 92.4189453125 697 c 0
 104.418945312 701 114.418945312 694 125.418945312 691 c 0
 142.418945312 687 159.418945312 686 176.418945312 684 c 0
 249.418945312 677 323.418945312 677 395.418945312 669 c 0
 420.418945312 666 464.418945312 660 469.418945312 631 c 0
 473.418945312 610 455.418945312 594 443.418945312 580 c 0
 417.418945312 549 392.418945312 516 369.418945312 482 c 0
 275.418945312 343 188.418945312 201 110.418945312 52 c 1
 158.418945312 53 206.418945312 57 254.418945312 53 c 0
 287.418945312 50 319.418945312 49 352.418945312 47 c 0
 384.418945312 45 429.418945312 47 458.418945312 31 c 0
 477.418945312 21 476.418945312 -9 456.418945312 -18 c 0
 434.418945312 -28 392.418945312 -11 368.418945312 -10 c 0
 289.418945312 -7 212.418945312 -3 133.418945312 -6 c 0
 105.418945312 -7 60.4189453125 -10 44.4189453125 18 c 0
 34.4189453125 35 43.4189453125 52 51.4189453125 68 c 0
 68.4189453125 103 86.4189453125 137 104.418945312 172 c 0
 137.418945312 237 178.418945312 300 217.418945312 362 c 0
 270.418945312 448 326.418945312 536 392.418945312 612 c 1
EndSplineSet
EndChar

StartChar: nine
Encoding: 57 57 16
Width: 461
VWidth: 0
Flags: HW
LayerCount: 2
Back
Fore
SplineSet
345.51953125 422 m 1
 333.51953125 398 312.51953125 378 293.51953125 360 c 0
 272.51953125 340 249.51953125 323 223.51953125 311 c 0
 163.51953125 284 98.51953125 321 67.51953125 374 c 0
 29.51953125 438 31.51953125 529 69.51953125 592 c 0
 122.51953125 682 260.51953125 715 351.51953125 663 c 0
 366.51953125 654 374.51953125 641 386.51953125 629 c 0
 396.51953125 620 409.51953125 622 416.51953125 608 c 0
 426.51953125 590 416.51953125 568 412.51953125 550 c 0
 407.51953125 526 408.51953125 499 407.51953125 474 c 0
 404.51953125 350 407.51953125 226 407.51953125 102 c 0
 407.51953125 69 416.51953125 28 408.51953125 -4 c 0
 404.51953125 -21 385.51953125 -31 369.51953125 -23 c 0
 355.51953125 -16 353.51953125 -1 353.51953125 13 c 0
 352.51953125 39 352.51953125 66 351.51953125 92 c 0
 348.51953125 167 347.51953125 242 346.51953125 317 c 0
 346.51953125 350 352.51953125 391 345.51953125 422 c 1
228.51953125 629 m 0
 147.51953125 620 98.51953125 557 99.51953125 478 c 0
 100.51953125 430 127.51953125 355 187.51953125 362 c 0
 209.51953125 365 227.51953125 381 243.51953125 395 c 0
 278.51953125 425 304.51953125 464 327.51953125 504 c 0
 335.51953125 518 349.51953125 538 349.51953125 554 c 0
 349.51953125 561 344.51953125 566 342.51953125 572 c 0
 339.51953125 582 343.51953125 592 336.51953125 602 c 0
 316.51953125 630 259.51953125 632 228.51953125 629 c 0
EndSplineSet
EndChar

StartChar: quoteright
Encoding: 8217 8217 17
Width: 159
VWidth: 0
Flags: HW
LayerCount: 2
Back
Fore
SplineSet
77.05859375 652 m 0
 108.05859375 662 115.05859375 625 117.05859375 604 c 0
 122.05859375 560 115.05859375 513 104.05859375 470 c 0
 99.05859375 453 94.05859375 432 75.05859375 426 c 0
 58.05859375 421 41.05859375 435 40.05859375 452 c 0
 39.05859375 478 51.05859375 506 56.05859375 531 c 0
 62.05859375 563 61.05859375 592 58.05859375 624 c 0
 57.05859375 637 65.05859375 648 77.05859375 652 c 0
EndSplineSet
EndChar

StartChar: dollar
Encoding: 36 36 18
Width: 414
VWidth: 0
Flags: HW
LayerCount: 2
Back
Fore
SplineSet
151.819335938 202 m 1
 151.819335938 241 149.819335938 281 149.819335938 320 c 0
 149.819335938 333 153.819335938 357 146.819335938 369 c 0
 140.819335938 379 124.819335938 387 115.819335938 394 c 0
 86.8193359375 416 38.8193359375 450 41.8193359375 492 c 0
 44.8193359375 529 80.8193359375 551 109.819335938 566 c 0
 118.819335938 571 137.819335938 574 143.819335938 583 c 0
 147.819335938 590 145.819335938 601 145.819335938 608 c 0
 145.819335938 628 141.819335938 655 150.819335938 674 c 0
 161.819335938 696 192.819335938 697 202.819335938 674 c 0
 207.819335938 663 202.819335938 654 201.819335938 643 c 0
 199.819335938 625 200.819335938 606 201.819335938 588 c 1
 227.819335938 586 l 1
 227.819335938 607 219.819335938 639 228.819335938 658 c 0
 236.819335938 675 260.819335938 679 273.819335938 666 c 0
 293.819335938 646 278.819335938 603 284.819335938 578 c 0
 287.819335938 565 302.819335938 558 304.819335938 544 c 0
 307.819335938 524 286.819335938 522 283.819335938 506 c 0
 278.819335938 473 282.819335938 435 283.819335938 402 c 0
 283.819335938 388 280.819335938 371 284.819335938 358 c 0
 288.819335938 344 311.819335938 332 321.819335938 322 c 0
 346.819335938 298 372.819335938 265 373.819335938 228 c 0
 374.819335938 176 338.819335938 124 283.819335938 120 c 1
 283.819335938 104 287.819335938 82 277.819335938 68 c 0
 266.819335938 53 240.819335938 54 231.819335938 70 c 0
 224.819335938 82 226.819335938 103 227.819335938 116 c 1
 209.819335938 118 l 1
 209.819335938 99 212.819335938 68 203.819335938 52 c 0
 192.819335938 33 164.819335938 32 154.819335938 52 c 0
 146.819335938 68 152.819335938 95 152.819335938 112 c 0
 152.819335938 119 153.819335938 128 149.819335938 134 c 0
 142.819335938 143 127.819335938 149 117.819335938 155 c 0
 92.8193359375 171 58.8193359375 194 43.8193359375 220 c 0
 31.8193359375 241 49.8193359375 267 73.8193359375 261 c 0
 99.8193359375 254 129.819335938 218 151.819335938 202 c 1
201.819335938 530 m 1
 205.819335938 499 204.819335938 466 205.819335938 434 c 0
 206.819335938 416 204.819335938 401 223.819335938 394 c 1
 227.819335938 532 l 1
 201.819335938 530 l 1
143.819335938 520 m 1
 132.819335938 513 108.819335938 505 103.819335938 492 c 0
 97.8193359375 477 136.819335938 450 147.819335938 446 c 1
 146.819335938 467 153.819335938 502 143.819335938 520 c 1
209.819335938 330 m 1
 211.819335938 176 l 1
 223.819335938 176 l 1
 221.819335938 213 223.819335938 251 223.819335938 288 c 0
 223.819335938 305 227.819335938 323 209.819335938 330 c 1
283.819335938 274 m 1
 281.819335938 180 l 1
 328.819335938 196 316.819335938 250 283.819335938 274 c 1
EndSplineSet
EndChar

StartChar: greater
Encoding: 62 62 19
Width: 362
VWidth: 0
Flags: HW
LayerCount: 2
Back
Fore
SplineSet
61.3798828125 617 m 0
 84.3798828125 622 110.379882812 593 126.379882812 580 c 0
 173.379882812 543 220.379882812 509 270.379882812 475 c 0
 288.379882812 462 318.379882812 448 321.379882812 423 c 0
 323.379882812 404 313.379882812 389 304.379882812 374 c 0
 285.379882812 343 261.379882812 314 239.379882812 284 c 0
 221.379882812 260 203.379882812 234 182.379882812 212 c 0
 173.379882812 202 163.379882812 190 148.379882812 190 c 0
 120.379882812 190 117.379882812 222 131.379882812 240 c 0
 164.379882812 281 194.379882812 323 225.379882812 366 c 0
 231.379882812 375 255.379882812 400 253.379882812 411 c 0
 250.379882812 424 214.379882812 441 204.379882812 448 c 0
 158.379882812 481 116.379882812 517 72.3798828125 552 c 0
 55.3798828125 566 15.3798828125 606 61.3798828125 617 c 0
EndSplineSet
EndChar

StartChar: h
Encoding: 104 104 20
Width: 441
VWidth: 0
Flags: HWO
LayerCount: 2
Back
Fore
SplineSet
136.83984375 292 m 1
 148.83984375 331 198.83984375 386 241.83984375 381 c 0
 264.83984375 379 288.83984375 364 304.83984375 348 c 0
 379.83984375 275 397.83984375 158 397.83984375 59 c 0
 397.83984375 35 406.83984375 31 392.83984375 11 c 0
 378.83984375 -9 347.83984375 0 343.83984375 23 c 0
 338.83984375 49 343.83984375 37 342.83984375 64 c 0
 340.83984375 129 332.83984375 187 298.83984375 244 c 0
 284.83984375 267 266.83984375 310 240.83984375 319 c 0
 213.83984375 329 187.83984375 264 178.83984375 246 c 0
 155.83984375 200 140.83984375 151 134.83984375 100 c 0
 131.83984375 73 134.83984375 60 131.83984375 33 c 0
 129.83984375 14 115.83984375 -4 94.83984375 2 c 0
 80.83984375 6 71.83984375 18 70.83984375 32 c 0
 67.83984375 68 73.83984375 92 73.83984375 129 c 0
 73.83984375 225 83.83984375 320 78.83984375 416 c 0
 76.83984375 451 77.83984375 485 76.83984375 520 c 0
 76.83984375 534 70.83984375 553 77.83984375 566 c 0
 88.83984375 588 119.83984375 584 127.83984375 562 c 0
 132.83984375 548 130.83984375 531 130.83984375 516 c 0
 131.83984375 492 131.350833574 467.953764813 132.83984375 444 c 0
 135.14518159 406.9139402 132.050537364 363.092442071 136.83984375 292 c 1
EndSplineSet
EndChar

StartChar: u
Encoding: 117 117 21
Width: 401
VWidth: 0
Flags: HW
LayerCount: 2
Back
Fore
SplineSet
63.076171875 380 m 4
 109.076171875 398 98.076171875 331 98.076171875 308 c 4
 97.076171875 247 93.076171875 188 114.076171875 129 c 4
 124.076171875 100 141.076171875 71 173.076171875 64 c 4
 205.076171875 57 230.076171875 75 251.076171875 97 c 4
 299.076171875 146 305.076171875 222 305.076171875 287 c 4
 305.076171875 312 288.076171875 375 327.076171875 377 c 4
 344.076171875 378 355.076171875 365 357.076171875 349 c 4
 361.076171875 319 361.076171875 289 361.076171875 259 c 4
 361.076171875 165 328.076171875 37 225.076171875 8 c 4
 210.076171875 4 195.076171875 1 180.076171875 2 c 4
 59.076171875 12 34.076171875 159 41.076171875 257 c 4
 43.076171875 286 44.076171875 314 45.076171875 343 c 4
 46.076171875 357 47.076171875 374 63.076171875 380 c 4
EndSplineSet
EndChar

StartChar: R
Encoding: 82 82 22
Width: 437
VWidth: 0
Flags: HW
LayerCount: 2
Back
Fore
SplineSet
101.25 268 m 1
 101.25 225 102.25 182 99.25 140 c 0
 97.25 107 97.25 73 97.25 40 c 0
 97.25 25 100.25 8 97.25 -6 c 0
 93.25 -27 68.25 -40 51.25 -24 c 0
 40.25 -14 42.25 1 41.25 14 c 0
 39.25 46 40.25 77 40.25 109 c 0
 40.25 236 42.25 365 49.25 492 c 0
 51.25 527 54.25 566 51.25 600 c 0
 49.25 618 34.25 632 55.25 647 c 0
 75.25 662 124.25 653 147.25 650 c 0
 231.25 637 329.25 608 331.25 506 c 0
 332.25 437 292.25 388 237.25 350 c 0
 214.25 334 187.25 322 165.25 304 c 1
 249.25 268 318.25 178 359.25 100 c 0
 370.25 78 392.25 49 396.25 25 c 0
 399.25 8 382.25 -8 365.25 -5 c 0
 350.25 -3 343.25 10 336.25 22 c 0
 323.25 45 311.25 69 297.25 92 c 0
 261.25 149 217.25 199 161.25 236 c 0
 143.25 248 123.25 264 101.25 268 c 1
105.25 596 m 1
 105.25 522 l 1
 103.25 342 l 1
 145.25 362 187.25 385 223.25 414 c 0
 238.25 426 256.25 442 264.25 460 c 0
 276.25 489 278.25 530 255.25 554 c 0
 232.25 578 191.25 587 160.25 592 c 0
 143.25 595 122.25 601 105.25 596 c 1
EndSplineSet
EndChar

StartChar: P
Encoding: 80 80 23
Width: 371
VWidth: 0
Flags: HW
LayerCount: 2
Back
Fore
SplineSet
101.892578125 276 m 1
 101.892578125 239 99.892578125 201 99.892578125 164 c 0
 99.892578125 121 106.892578125 70 99.892578125 28 c 0
 96.892578125 10 79.892578125 -3 61.892578125 5 c 0
 41.892578125 13 44.892578125 34 42.892578125 52 c 0
 37.892578125 99 40.892578125 149 40.892578125 196 c 0
 40.892578125 302 46.892578125 409 46.892578125 515 c 0
 46.892578125 547 31.892578125 608 51.892578125 636 c 0
 62.892578125 651 76.892578125 645 91.892578125 648 c 0
 129.892578125 655 170.892578125 658 207.892578125 642 c 0
 290.892578125 606 355.892578125 503 321.892578125 412 c 0
 303.892578125 364 260.892578125 329 215.892578125 306 c 0
 185.892578125 291 135.892578125 266 101.892578125 276 c 1
101.892578125 326 m 1
 181.892578125 348 287.892578125 390 265.892578125 492 c 0
 262.892578125 507 255.892578125 521 248.892578125 534 c 0
 227.892578125 571 184.892578125 597 141.892578125 598 c 0
 130.892578125 598 110.892578125 601 102.892578125 591 c 0
 91.892578125 579 100.892578125 534 101.892578125 519 c 0
 103.892578125 456 110.892578125 388 101.892578125 326 c 1
EndSplineSet
EndChar

StartChar: zero
Encoding: 48 48 24
Width: 454
VWidth: 0
Flags: HW
LayerCount: 2
Back
Fore
SplineSet
162.77734375 619 m 0
 181.77734375 623 190.77734375 610 206.77734375 604 c 0
 266.77734375 581 306.77734375 542 346.77734375 492 c 0
 373.77734375 457 400.77734375 413 409.77734375 369 c 0
 428.77734375 273 376.77734375 168 321.77734375 94 c 0
 285.77734375 45 245.77734375 -4 181.77734375 -15 c 0
 97.77734375 -30 60.77734375 58 47.77734375 126 c 0
 36.77734375 182 39.77734375 238 42.77734375 294 c 0
 46.77734375 371 56.77734375 447 83.77734375 520 c 0
 87.77734375 531 97.77734375 545 97.77734375 556 c 0
 98.77734375 570 85.77734375 579 95.77734375 594 c 0
 105.77734375 608 120.77734375 604 134.77734375 608 c 0
 144.77734375 611 152.77734375 617 162.77734375 619 c 0
161.77734375 550 m 0
 154.77734375 545 149.77734375 534 145.77734375 526 c 0
 134.77734375 503 126.77734375 479 120.77734375 454 c 0
 96.77734375 358 87.77734375 244 104.77734375 146 c 0
 109.77734375 119 120.77734375 59 148.77734375 47 c 0
 166.77734375 39 188.77734375 48 204.77734375 57 c 0
 236.77734375 74 258.77734375 108 278.77734375 136 c 0
 321.77734375 196 365.77734375 280 351.77734375 358 c 0
 348.77734375 375 338.77734375 394 331.77734375 410 c 0
 311.77734375 459 264.77734375 508 220.77734375 536 c 0
 206.77734375 545 178.77734375 560 161.77734375 550 c 0
EndSplineSet
EndChar

StartChar: question
Encoding: 63 63 25
Width: 391
VWidth: 0
Flags: HW
LayerCount: 2
Back
Fore
SplineSet
212.858398438 667 m 0
 236.858398438 669 259.858398438 665 280.858398438 654 c 0
 294.858398438 647 307.858398438 638 319.858398438 627 c 0
 402.858398438 547 298.858398438 449 250.858398438 382 c 0
 240.858398438 368 229.858398438 353 221.858398438 338 c 0
 213.858398438 324 204.858398438 308 204.858398438 292 c 0
 204.858398438 269 241.858398438 212 192.858398438 212 c 0
 154.858398438 212 143.858398438 284 148.858398438 312 c 0
 161.858398438 383 219.858398438 440 260.858398438 496 c 0
 274.858398438 515 303.858398438 550 286.858398438 574 c 0
 244.858398438 634 158.858398438 605 112.858398438 567 c 0
 94.8583984375 552 91.8583984375 515 60.8583984375 524 c 0
 20.8583984375 535 47.8583984375 579 63.8583984375 598 c 0
 99.8583984375 640 158.858398438 662 212.858398438 667 c 0
212.858398438 102 m 0
 265.858398438 105 255.858398438 28 211.858398438 25 c 0
 191.858398438 24 171.858398438 51 173.858398438 70 c 0
 175.858398438 89 194.858398438 101 212.858398438 102 c 0
EndSplineSet
EndChar

StartChar: quotedbl
Encoding: 34 34 26
Width: 258
VWidth: 0
Flags: HW
LayerCount: 2
Back
Fore
SplineSet
60.47265625 635 m 0
 77.47265625 640 91.47265625 628 94.47265625 612 c 0
 102.47265625 574 101.47265625 534 100.47265625 496 c 0
 100.47265625 480 96.47265625 460 78.47265625 455 c 0
 62.47265625 450 47.47265625 461 43.47265625 476 c 0
 36.47265625 502 42.47265625 531 43.47265625 557 c 0
 43.47265625 575 38.47265625 594 40.47265625 612 c 0
 41.47265625 623 50.47265625 632 60.47265625 635 c 0
173.47265625 625 m 0
 185.47265625 628 199.47265625 620 204.47265625 608 c 0
 208.47265625 599 206.47265625 588 208.47265625 578 c 0
 213.47265625 552 232.47265625 486 194.47265625 477 c 0
 181.47265625 474 168.47265625 480 162.47265625 492 c 0
 152.47265625 512 156.47265625 542 154.47265625 564 c 0
 153.47265625 576 150.47265625 590 152.47265625 602 c 0
 154.47265625 613 162.47265625 622 173.47265625 625 c 0
EndSplineSet
EndChar

StartChar: percent
Encoding: 37 37 27
Width: 380
VWidth: 0
Flags: HW
LayerCount: 2
Back
Fore
SplineSet
296.458984375 513 m 0
 314.458984375 516 331.458984375 499 328.458984375 481 c 0
 325.458984375 464 310.458984375 447 301.458984375 432 c 0
 249.458984375 350 194.458984375 272 136.458984375 194 c 0
 120.458984375 173 97.458984375 121 67.458984375 120 c 0
 49.458984375 119 37.458984375 135 40.458984375 152 c 0
 43.458984375 170 60.458984375 189 70.458984375 204 c 0
 122.458984375 282 181.458984375 356 234.458984375 434 c 0
 248.458984375 455 270.458984375 508 296.458984375 513 c 0
99.458984375 465 m 0
 136.458984375 473 157.458984375 413 117.458984375 403 c 0
 78.458984375 394 59.458984375 456 99.458984375 465 c 0
304.458984375 236 m 0
 320.458984375 241 337.458984375 230 339.458984375 214 c 0
 341.458984375 195 327.458984375 163 309.458984375 157 c 0
 291.458984375 151 272.458984375 162 271.458984375 182 c 0
 270.458984375 201 285.458984375 230 304.458984375 236 c 0
EndSplineSet
EndChar

StartChar: bracketleft
Encoding: 91 91 28
Width: 285
VWidth: 0
Flags: HW
LayerCount: 2
Back
Fore
SplineSet
123.80078125 28 m 1
 149.80078125 36 199.80078125 35 225.80078125 26 c 0
 242.80078125 20 250.80078125 -1 239.80078125 -16 c 0
 229.80078125 -30 212.80078125 -27 197.80078125 -26 c 0
 163.80078125 -23 103.80078125 -42 75.80078125 -17 c 0
 62.80078125 -5 61.80078125 32 58.80078125 49 c 0
 52.80078125 89 55.80078125 131 55.80078125 172 c 0
 55.80078125 241 55.80078125 311 51.80078125 380 c 0
 47.80078125 447 43.80078125 515 43.80078125 582 c 0
 43.80078125 605 36.80078125 631 41.80078125 654 c 0
 45.80078125 672 62.80078125 681 79.80078125 685 c 0
 113.80078125 693 153.80078125 689 187.80078125 682 c 0
 201.80078125 679 219.80078125 676 228.80078125 664 c 0
 240.80078125 648 230.80078125 624 210.80078125 621 c 0
 198.80078125 619 186.80078125 626 174.80078125 628 c 0
 149.80078125 632 124.80078125 632 99.80078125 632 c 1
 99.80078125 507 112.80078125 381 115.80078125 256 c 0
 117.80078125 182 103.80078125 100 123.80078125 28 c 1
EndSplineSet
EndChar

StartChar: o
Encoding: 111 111 29
Width: 402
VWidth: 0
Flags: HWO
LayerCount: 2
Back
Fore
SplineSet
178.786132812 383 m 0
 198.786132812 387 204.786132812 375 221.786132812 370 c 0
 245.786132812 362 269.786132812 359 290.786132812 343 c 0
 306.786132812 331 315.786132812 313 325.786132812 296 c 0
 349.786132812 256 364.786132812 215 361.786132812 168 c 4
 356.786132812 77 278.786132812 13 193.786132812 -1 c 0
 124.786132812 -13 54.7861328125 49 42.7861328125 114 c 0
 28.7861328125 190 69.7861328125 280 115.786132812 338 c 0
 124.786132812 349 123.786132812 365 134.786132812 374 c 0
 144.786132812 382 165.786132812 381 178.786132812 383 c 0
174.786132812 318 m 0
 153.786132812 308 140.786132812 276 130.786132812 256 c 0
 101.786132812 199 69.5750374714 87.2393896385 154.786132812 64 c 0
 165.786132812 61 179 56 191 59 c 0
 205 62 217.979884338 66.5968757626 230.786132812 73 c 0
 250.786132812 83 273.786132812 103 286.786132812 122 c 0
 311.786132812 158 304.786132812 216 283.786132812 252 c 0
 262.786132812 288 250.786132812 305 208.786132812 315 c 0
 199.786132812 317 183.786132812 322 174.786132812 318 c 0
EndSplineSet
EndChar

StartChar: k
Encoding: 107 107 30
Width: 412
VWidth: 0
Flags: HW
LayerCount: 2
Back
Fore
SplineSet
97.73046875 284 m 5
 97.73046875 245 99.73046875 205 100.73046875 166 c 4
 101.73046875 121 110.73046875 73 105.73046875 28 c 4
 103.73046875 8 80.73046875 -3 63.73046875 8 c 4
 51.73046875 16 51.73046875 30 50.73046875 43 c 4
 47.73046875 74 45.73046875 105 43.73046875 136 c 4
 36.73046875 244 41.73046875 350 41.73046875 458 c 4
 41.73046875 486 43.73046875 514 43.73046875 542 c 4
 43.73046875 554 40.73046875 571 47.73046875 582 c 4
 61.73046875 602 93.73046875 594 97.73046875 570 c 4
 106.73046875 515 97.73046875 452 97.73046875 396 c 5
 123.73046875 418 153.73046875 436 179.73046875 459 c 4
 196.73046875 474 211.73046875 495 231.73046875 507 c 4
 254.73046875 521 279.73046875 499 271.73046875 474 c 4
 266.73046875 459 249.73046875 448 239.73046875 438 c 4
 218.73046875 417 197.73046875 398 173.73046875 380 c 4
 157.73046875 368 135.73046875 356 123.73046875 340 c 5
 149.73046875 327 171.73046875 300 191.73046875 280 c 4
 244.73046875 227 294.73046875 167 333.73046875 104 c 4
 345.73046875 84 367.73046875 57 372.73046875 34 c 4
 376.73046875 17 362.73046875 1 345.73046875 1 c 4
 314.73046875 1 293.73046875 60 278.73046875 82 c 4
 230.73046875 154 166.73046875 230 97.73046875 284 c 5
EndSplineSet
EndChar

StartChar: w
Encoding: 119 119 31
Width: 549
VWidth: 0
Flags: HW
LayerCount: 2
Back
Fore
SplineSet
278.78515625 90 m 1
 261.78515625 70 244.78515625 43 224.78515625 26 c 0
 171.78515625 -17 111.78515625 -8 83.78515625 57 c 0
 56.78515625 120 57.78515625 204 62.78515625 272 c 0
 64.78515625 302 63.78515625 316 66.78515625 346 c 0
 67.78515625 360 68.78515625 377 80.78515625 387 c 0
 98.78515625 402 127.78515625 391 126.78515625 366 c 0
 125.78515625 348 119.78515625 346 118.78515625 328 c 0
 115.78515625 268 116.78515625 206 120.78515625 146 c 0
 121.78515625 125 133.78515625 65 156.78515625 58 c 0
 171.78515625 53 195.78515625 80 204.78515625 89 c 0
 223.78515625 108 251.78515625 146 257.78515625 174 c 0
 263.78515625 202 250.78515625 247 282.78515625 262 c 0
 302.78515625 272 324.78515625 258 329.78515625 237 c 0
 334.78515625 212 323.78515625 188 321.78515625 164 c 0
 319.78515625 143 330.78515625 117 339.78515625 98 c 0
 347.78515625 81 374.78515625 41 398.78515625 56 c 0
 414.78515625 66 424.78515625 85 432.78515625 102 c 0
 459.78515625 156 455.78515625 232 438.78515625 288 c 0
 430.78515625 313 385.78515625 371 422.78515625 390 c 0
 460.78515625 409 485.78515625 329 492.78515625 304 c 0
 517.78515625 216 519.78515625 105 458.78515625 30 c 0
 401.78515625 -39 292.78515625 7 278.78515625 90 c 1
EndSplineSet
EndChar

StartChar: D
Encoding: 68 68 32
Width: 443
VWidth: 0
Flags: HW
LayerCount: 2
Back
Fore
SplineSet
124.83984375 675 m 0
 224.83984375 676 307.83984375 576 348.83984375 494 c 0
 372.83984375 446 396.83984375 395 401.83984375 341 c 0
 415.83984375 185 320.83984375 24 162.83984375 -7 c 0
 144.83984375 -11 125.83984375 -9 108.83984375 -13 c 0
 99.83984375 -15 91.83984375 -22 81.83984375 -21 c 0
 67.83984375 -20 57.83984375 -9 56.83984375 4 c 0
 51.83984375 52 53.83984375 102 51.83984375 150 c 0
 47.83984375 265 44.83984375 379 44.83984375 494 c 0
 44.83984375 527 43.83984375 559 43.83984375 592 c 0
 43.83984375 604 37.83984375 614 40.83984375 626 c 0
 48.83984375 661 92.83984375 675 124.83984375 675 c 0
112.83984375 44 m 1
 251.83984375 46 345.83984375 180 343.83984375 312 c 0
 342.83984375 375 314.83984375 434 285.83984375 488 c 0
 261.83984375 532 216.83984375 587 170.83984375 609 c 0
 153.83984375 617 124.83984375 625 106.83984375 617 c 0
 94.83984375 612 98.83984375 595 98.83984375 584 c 0
 98.83984375 549 99.83984375 515 100.83984375 480 c 0
 103.83984375 335 112.83984375 189 112.83984375 44 c 1
EndSplineSet
EndChar

StartChar: Q
Encoding: 81 81 33
Width: 611
VWidth: 0
Flags: HW
LayerCount: 2
Back
Fore
SplineSet
383.953125 88 m 1
 364.953125 101 321.953125 141 363.953125 158 c 0
 381.953125 165 394.953125 151 407.953125 141 c 0
 413.953125 136 421.953125 126 429.953125 131 c 0
 439.953125 136 445.953125 149 452.953125 158 c 0
 475.953125 188 490.953125 220 499.953125 256 c 0
 531.953125 383 499.953125 541 379.953125 612 c 0
 336.953125 637 287.953125 653 237.953125 648 c 0
 212.953125 646 186.953125 634 162.953125 635 c 0
 144.953125 636 129.953125 652 135.953125 670 c 0
 142.953125 691 172.953125 694 191.953125 698 c 0
 248.953125 710 305.953125 706 359.953125 686 c 0
 500.953125 634 576.953125 484 570.953125 338 c 0
 567.953125 280 558.953125 218 530.953125 166 c 0
 519.953125 146 507.953125 128 493.953125 110 c 0
 487.953125 102 475.953125 93 472.953125 84 c 0
 470.953125 76 482.953125 65 487.953125 60 c 0
 501.953125 43 535.953125 19 538.953125 -3 c 0
 541.953125 -25 519.953125 -41 499.953125 -32 c 0
 474.953125 -21 436.953125 17 425.953125 42 c 1
 390.953125 17 356.953125 -6 315.953125 -19 c 0
 287.953125 -28 251.953125 -25 222.953125 -20 c 0
 198.953125 -16 176.953125 -7 155.953125 6 c 0
 -0.046875 101 26.953125 324 88.953125 468 c 0
 110.953125 519 138.953125 572 180.953125 610 c 0
 196.953125 624 213.953125 640 235.953125 644 c 0
 261.953125 649 293.953125 626 275.953125 598 c 0
 266.953125 583 253.953125 590 240.953125 586 c 0
 230.953125 583 222.953125 573 215.953125 566 c 0
 168.953125 517 139.953125 452 119.953125 388 c 0
 84.953125 274 78.953125 63 235.953125 39 c 0
 253.953125 36 272.953125 34 290.953125 37 c 0
 326.953125 42 353.953125 69 383.953125 86 c 1
 383.953125 88 l 1
EndSplineSet
EndChar

StartChar: one
Encoding: 49 49 34
Width: 268
VWidth: 0
Flags: HW
LayerCount: 2
Back
Fore
SplineSet
142.05078125 578 m 1
 124.05078125 560 101.05078125 530 78.05078125 519 c 0
 61.05078125 511 41.05078125 524 40.05078125 542 c 0
 39.05078125 560 53.05078125 569 64.05078125 580 c 0
 87.05078125 604 110.05078125 630 140.05078125 646 c 0
 157.05078125 655 178.05078125 657 189.05078125 638 c 0
 198.05078125 623 199.05078125 602 200.05078125 585 c 0
 201.05078125 550 200.05078125 515 200.05078125 480 c 0
 200.05078125 371 215.05078125 263 220.05078125 154 c 0
 222.05078125 122 223.05078125 88 226.05078125 56 c 0
 228.05078125 40 232.05078125 22 214.05078125 13 c 0
 198.05078125 5 181.05078125 14 175.05078125 30 c 0
 164.05078125 62 166.05078125 104 163.05078125 137 c 0
 150.05078125 285 142.05078125 430 142.05078125 578 c 1
EndSplineSet
EndChar

StartChar: colon
Encoding: 58 58 35
Width: 206
VWidth: 0
Flags: HW
LayerCount: 2
Back
Fore
SplineSet
107.922851562 369 m 0
 155.922851562 380 143.922851562 302 110.922851562 293 c 0
 84.9228515625 286 53.9228515625 305 63.9228515625 334 c 0
 69.9228515625 352 89.9228515625 365 107.922851562 369 c 0
101.922851562 137 m 0
 149.922851562 150 160.922851562 82 114.922851562 71 c 0
 70.9228515625 61 59.9228515625 126 101.922851562 137 c 0
EndSplineSet
EndChar

StartChar: quotedblleft
Encoding: 8220 8220 36
Width: 273
VWidth: 0
Flags: HW
LayerCount: 2
Back
Fore
SplineSet
92.546875 685 m 0
 108.546875 690 126.546875 680 128.546875 662 c 0
 130.546875 644 110.546875 625 106.546875 606 c 0
 103.546875 590 98.546875 572 100.546875 556 c 0
 101.546875 545 109.546875 536 109.546875 525 c 0
 109.546875 512 100.546875 501 88.546875 498 c 0
 62.546875 491 46.546875 521 42.546875 542 c 0
 34.546875 578 46.546875 620 62.546875 652 c 0
 68.546875 665 77.546875 681 92.546875 685 c 0
194.546875 660 m 0
 208.546875 661 220.546875 652 222.546875 638 c 0
 224.546875 625 216.546875 618 213.546875 606 c 0
 208.546875 585 208.546875 560 209.546875 538 c 0
 210.546875 519 231.546875 507 232.546875 488 c 0
 233.546875 473 223.546875 460 208.546875 458 c 0
 189.546875 456 175.546875 474 166.546875 488 c 0
 142.546875 526 149.546875 570 157.546875 612 c 0
 161.546875 633 168.546875 659 194.546875 660 c 0
EndSplineSet
EndChar

StartChar: ampersand
Encoding: 38 38 37
Width: 457
VWidth: 0
Flags: HW
LayerCount: 2
Back
Fore
SplineSet
305.393554688 108 m 1
 262.393554688 59 194.393554688 7 125.393554688 14 c 0
 92.3935546875 17 64.3935546875 27 51.3935546875 60 c 0
 46.3935546875 73 42.3935546875 86 41.3935546875 100 c 0
 39.3935546875 117 39.3935546875 135 42.3935546875 152 c 0
 51.3935546875 200 87.3935546875 238 117.393554688 274 c 0
 127.393554688 286 155.393554688 312 155.393554688 328 c 0
 155.393554688 349 134.393554688 378 127.393554688 398 c 0
 105.393554688 457 89.3935546875 522 111.393554688 584 c 0
 130.393554688 637 189.393554688 656 237.393554688 627 c 0
 256.393554688 616 269.393554688 596 279.393554688 576 c 0
 309.393554688 515 300.393554688 452 271.393554688 392 c 0
 262.393554688 374 252.393554688 357 241.393554688 340 c 0
 238.393554688 334 230.393554688 326 230.393554688 319 c 0
 230.393554688 309 244.393554688 295 249.393554688 286 c 0
 266.393554688 259 289.393554688 233 303.393554688 204 c 1
 319.393554688 224 315.393554688 250 325.393554688 272 c 0
 336.393554688 298 374.393554688 292 377.393554688 264 c 0
 379.393554688 238 367.393554688 207 357.393554688 184 c 0
 353.393554688 176 343.393554688 163 343.393554688 154 c 0
 343.393554688 144 356.393554688 133 361.393554688 126 c 0
 376.393554688 105 413.393554688 73 416.393554688 47 c 0
 418.393554688 24 392.393554688 8 373.393554688 21 c 0
 363.393554688 28 355.393554688 40 348.393554688 50 c 0
 334.393554688 68 314.393554688 87 305.393554688 108 c 1
195.393554688 384 m 1
 208.393554688 392 216.393554688 414 222.393554688 428 c 0
 240.393554688 473 251.393554688 534 211.393554688 572 c 0
 207.393554688 576 201.393554688 578 195.393554688 579 c 0
 158.393554688 585 161.393554688 535 161.393554688 510 c 0
 161.393554688 494 163.393554688 479 167.393554688 464 c 0
 174.393554688 437 188.393554688 411 195.393554688 384 c 1
189.393554688 270 m 1
 168.393554688 242 144.393554688 216 123.393554688 188 c 0
 114.393554688 176 105.393554688 163 101.393554688 148 c 0
 98.3935546875 138 97.3935546875 128 98.3935546875 117 c 0
 99.3935546875 105 99.3935546875 86 108.393554688 77 c 0
 115.393554688 70 127.393554688 70 136.393554688 70 c 0
 168.393554688 68 203.393554688 91 227.393554688 110 c 0
 238.393554688 118 267.393554688 139 267.393554688 154 c 0
 267.393554688 164 254.393554688 176 249.393554688 184 c 0
 230.393554688 211 213.393554688 248 189.393554688 270 c 1
EndSplineSet
EndChar

StartChar: bracketright
Encoding: 93 93 38
Width: 291
VWidth: 0
Flags: HW
LayerCount: 2
Back
Fore
SplineSet
190.979492188 48 m 1
 190.979492188 168 180.979492188 287 180.979492188 407 c 0
 180.979492188 451 181.979492188 494 182.979492188 538 c 0
 182.979492188 553 188.979492188 573 185.979492188 588 c 0
 182.979492188 599 163.979492188 599 154.979492188 600 c 0
 125.979492188 602 87.9794921875 594 60.9794921875 604 c 0
 44.9794921875 610 35.9794921875 629 44.9794921875 644 c 0
 56.9794921875 664 79.9794921875 655 98.9794921875 656 c 0
 141.979492188 658 233.979492188 665 243.979492188 608 c 0
 249.979492188 574 239.979492188 535 239.979492188 500 c 0
 239.979492188 413 239.979492188 325 242.979492188 238 c 0
 244.979492188 196 243.979492188 154 246.979492188 112 c 0
 248.979492188 85 253.979492188 50 246.979492188 24 c 0
 234.979492188 -20 193.979492188 -9 158.979492188 -6 c 0
 140.979492188 -5 121.979492188 -6 102.979492188 -6 c 0
 84.9794921875 -6 56.9794921875 -12 44.9794921875 6 c 0
 32.9794921875 23 43.9794921875 46 63.9794921875 49 c 0
 104.979492188 56 149.979492188 51 190.979492188 48 c 1
EndSplineSet
EndChar

StartChar: d
Encoding: 100 100 39
Width: 470
VWidth: 0
Flags: HWO
LayerCount: 2
Back
Fore
SplineSet
292 369 m 5
 292.677734375 432.290039062 296.351495642 441.992812969 296.59375 492 c 0
 296.83717477 542.248788487 306.59375 605 320.59375 654 c 0
 328.59375 684 372.101623401 699.167965895 370.59375 667 c 0
 369 633 356.536132812 591.924804688 354 556 c 0
 348 471 340 456 346 326 c 4
 347.389648438 295.881835938 353.59375 237 353.59375 207 c 0
 353.59375 195 359.59375 182 362.59375 170 c 0
 370.59375 139 379.59375 106 395.59375 78 c 0
 404.59375 63 426.59375 48 429.59375 30 c 0
 434.59375 1 401.59375 -11 381.59375 6 c 0
 346.59375 36 340.59375 77 317.59375 114 c 1
 304.59375 83 282.59375 56 257.59375 34 c 0
 179.59375 -33 71.59375 -3 45.59375 98 c 0
 22.59375 190 72.392578125 323.399414062 157.59375 366 c 4
 191.59375 383 257 386 292 369 c 5
291 267 m 4
 290.40625 284 283.40625 306 269 315 c 4
 229.741210938 339.526367188 176.975585938 324.517578125 148.59375 290 c 4
 111.59375 245 87.59375 171 101.59375 112 c 0
 118.59375 42 187.59375 45 231.59375 90 c 0
 248.59375 108 259.59375 130 270.59375 152 c 0
 278.59375 169 291.59375 194 291.59375 214 c 0
 291.59375 227 291.512695312 252.33203125 291 267 c 4
EndSplineSet
EndChar

StartChar: l
Encoding: 108 108 40
Width: 312
VWidth: 0
Flags: HWO
LayerCount: 2
Back
Fore
SplineSet
120.629882812 610.48046875 m 0
 135.0703125 616.240234375 162.509765625 600.879882812 162.509765625 582.639648438 c 4
 162.509765625 566.3203125 152.629882812 560.559570312 148.830078125 546.16015625 c 4
 142.75 522.16015625 142.75 495.280273438 141.23046875 470.3203125 c 4
 135.150390625 379.120117188 128.309570312 275.440429688 144.26953125 185.200195312 c 4
 150.349609375 150.639648438 157.190429688 113.200195312 175.4296875 85.3603515625 c 4
 192.91015625 59.4404296875 203.469726562 50.7998046875 225.509765625 34.48046875 c 0
 239.950195312 23.919921875 241.469726562 -2 225.509765625 -11.599609375 c 0
 213.349609375 -19.2802734375 198.91015625 -9.6796875 187.509765625 -3.919921875 c 0
 154.0703125 13.3603515625 125.950195312 45.0400390625 109.23046875 85.3603515625 c 0
 62.1103515625 201.51953125 75.0302734375 356.080078125 85.669921875 480.879882812 c 0
 88.7099609375 512.559570312 90.23046875 546.16015625 98.58984375 576.879882812 c 0
 102.389648438 590.3203125 109.23046875 605.6796875 120.629882812 610.48046875 c 0
EndSplineSet
EndChar

StartChar: v
Encoding: 118 118 41
Width: 352
VWidth: 0
Flags: HW
LayerCount: 2
Back
Fore
SplineSet
149.603515625 92 m 1
 163.603515625 136 178.603515625 180 193.603515625 224 c 0
 202.603515625 252 212.603515625 280 223.603515625 308 c 0
 233.603515625 334 238.603515625 366 259.603515625 385 c 4
 275.603515625 400 303.603515625 389 305.603515625 368 c 4
 308.603515625 341 287.603515625 314 278.603515625 288 c 0
 252.603515625 217 233.603515625 147 206.603515625 76 c 0
 197.603515625 51 184.603515625 2 151.603515625 -1 c 0
 113.603515625 -4 100.603515625 51 91.603515625 78 c 0
 69.603515625 143 55.603515625 206 47.603515625 274 c 0
 44.603515625 300 35.603515625 334 42.603515625 360 c 0
 48.603515625 384 80.603515625 389 93.603515625 368 c 0
 106.603515625 348 97.603515625 321 100.603515625 299 c 0
 103.603515625 275 108.603515625 250 112.603515625 226 c 0
 119.603515625 182 128.603515625 132 149.603515625 92 c 1
EndSplineSet
EndChar

StartChar: L
Encoding: 76 76 42
Width: 447
VWidth: 0
Flags: HW
LayerCount: 2
Back
Fore
SplineSet
117.249023438 52 m 1
 193.249023438 46 273.249023438 50 349.249023438 55 c 0
 372.249023438 56 419.249023438 56 403.249023438 18 c 0
 393.249023438 -7 338.249023438 -2 315.249023438 -3 c 0
 253.249023438 -5 186.249023438 -17 125.249023438 -9 c 0
 95.2490234375 -5 66.2490234375 7 59.2490234375 40 c 0
 26.2490234375 196 45.2490234375 364 47.2490234375 522 c 0
 47.2490234375 549 49.2490234375 575 49.2490234375 602 c 0
 49.2490234375 615 46.2490234375 630 48.2490234375 643 c 0
 51.2490234375 659 66.2490234375 669 81.2490234375 665 c 0
 98.2490234375 661 103.249023438 645 103.249023438 630 c 0
 103.249023438 593 103.249023438 557 103.249023438 520 c 0
 103.249023438 418 99.2490234375 316 103.249023438 214 c 0
 105.249023438 160 116.249023438 106 117.249023438 52 c 1
EndSplineSet
EndChar

StartChar: S
Encoding: 83 83 43
Width: 473
VWidth: 0
Flags: HW
LayerCount: 2
Back
Fore
SplineSet
240.336914062 659 m 0
 280.336914062 663 325.336914062 652 356.336914062 626 c 0
 370.336914062 614 384.336914062 602 382.336914062 582 c 0
 381.336914062 563 363.336914062 548 344.336914062 556 c 0
 328.336914062 562 323.336914062 583 308.336914062 592 c 0
 273.336914062 612 220.336914062 607 190.336914062 580 c 0
 182.336914062 573 169.336914062 562 168.336914062 551 c 0
 163.336914062 510 192.336914062 466 216.336914062 436 c 0
 232.336914062 415 250.336914062 396 270.336914062 379 c 0
 343.336914062 317 443.336914062 251 432.336914062 142 c 0
 430.336914062 118 426.336914062 94 410.336914062 76 c 0
 399.336914062 63 385.336914062 53 370.336914062 44 c 0
 348.336914062 32 322.336914062 26 297.336914062 23 c 0
 225.336914062 15 157.336914062 32 92.3369140625 64 c 0
 71.3369140625 74 11.3369140625 110 56.3369140625 134 c 0
 78.3369140625 146 111.336914062 117 130.336914062 109 c 0
 187.336914062 85 246.336914062 70 307.336914062 84 c 0
 330.336914062 89 361.336914062 101 369.336914062 126 c 0
 382.336914062 166 363.336914062 208 337.336914062 238 c 0
 319.336914062 259 297.336914062 277 276.336914062 295 c 0
 258.336914062 310 239.336914062 324 222.336914062 340 c 0
 175.336914062 384 126.336914062 445 113.336914062 510 c 0
 109.336914062 531 105.336914062 560 115.336914062 580 c 0
 126.336914062 602 149.336914062 623 170.336914062 636 c 0
 192.336914062 649 215.336914062 657 240.336914062 659 c 0
EndSplineSet
EndChar

StartChar: two
Encoding: 50 50 44
Width: 436
VWidth: 0
Flags: HW
LayerCount: 2
Back
Fore
SplineSet
105.063476562 54 m 1
 182.063476562 54 260.063476562 42 337.063476562 42 c 0
 359.063476562 42 406.063476562 47 394.063476562 8 c 0
 385.063476562 -21 334.063476562 -15 310.063476562 -14 c 0
 240.063476562 -11 169.063476562 -11 100.063476562 -3 c 0
 74.0634765625 0 42.0634765625 11 40.0634765625 42 c 0
 39.0634765625 59 50.0634765625 78 58.0634765625 92 c 0
 77.0634765625 126 101.063476562 158 123.063476562 190 c 0
 176.063476562 266 227.063476562 345 269.063476562 428 c 0
 286.063476562 462 308.063476562 498 314.063476562 536 c 0
 316.063476562 551 317.063476562 580 304.063476562 590 c 0
 294.063476562 598 273.063476562 595 261.063476562 595 c 0
 221.063476562 593 179.063476562 589 152.063476562 556 c 0
 145.063476562 548 138.063476562 537 139.063476562 526 c 0
 140.063476562 510 151.063476562 494 133.063476562 482 c 0
 115.063476562 469 93.0634765625 482 87.0634765625 502 c 0
 57.0634765625 606 186.063476562 652 265.063476562 652 c 0
 292.063476562 652 323.063476562 654 345.063476562 635 c 0
 396.063476562 591 371.063476562 505 349.063476562 454 c 0
 287.063476562 309 185.063476562 189 105.063476562 54 c 1
EndSplineSet
EndChar

StartChar: semicolon
Encoding: 59 59 45
Width: 164
VWidth: 0
Flags: HW
LayerCount: 2
Back
Fore
SplineSet
62.4677734375 385 m 0
 99.4677734375 394 111.467773438 336 74.4677734375 327 c 0
 37.4677734375 318 25.4677734375 376 62.4677734375 385 c 0
80.4677734375 119 m 0
 110.467773438 128 117.467773438 95 120.467773438 74 c 0
 126.467773438 34 127.467773438 -1 108.467773438 -38 c 0
 102.467773438 -51 93.4677734375 -67 78.4677734375 -71 c 0
 61.4677734375 -75 45.4677734375 -64 44.4677734375 -46 c 0
 43.4677734375 -22 61.4677734375 0 66.4677734375 23 c 0
 71.4677734375 44 63.4677734375 64 62.4677734375 84 c 0
 61.4677734375 98 64.4677734375 114 80.4677734375 119 c 0
EndSplineSet
EndChar

StartChar: quotedblright
Encoding: 8221 8221 46
Width: 242
VWidth: 0
Flags: HW
LayerCount: 2
Back
Fore
SplineSet
76.525390625 654 m 0
 98.525390625 655 104.525390625 635 107.525390625 618 c 0
 112.525390625 587 110.525390625 554 98.525390625 524 c 0
 92.525390625 509 85.525390625 496 67.525390625 495 c 0
 17.525390625 493 50.525390625 571 52.525390625 595 c 0
 53.525390625 608 47.525390625 623 51.525390625 636 c 0
 54.525390625 647 65.525390625 654 76.525390625 654 c 0
156.525390625 653 m 0
 179.525390625 660 192.525390625 640 196.525390625 620 c 0
 203.525390625 587 210.525390625 506 164.525390625 496 c 0
 149.525390625 493 135.525390625 504 132.525390625 518 c 0
 129.525390625 535 140.525390625 555 142.525390625 572 c 0
 144.525390625 591 137.525390625 609 138.525390625 628 c 0
 139.525390625 639 145.525390625 650 156.525390625 653 c 0
EndSplineSet
EndChar

StartChar: parenleft
Encoding: 40 40 47
Width: 285
VWidth: 0
Flags: HW
LayerCount: 2
Back
Fore
SplineSet
157.475585938 729 m 0
 174.475585938 731 191.475585938 717 189.475585938 699 c 0
 187.475585938 684 175.475585938 670 169.475585938 656 c 0
 159.475585938 631 153.475585938 604 146.475585938 578 c 0
 117.475585938 472 97.4755859375 361 103.475585938 251 c 0
 106.475585938 198 113.475585938 144 139.475585938 96 c 0
 163.475585938 52 196.475585938 27 234.475585938 -3 c 0
 251.475585938 -17 246.475585938 -46 224.475585938 -51 c 0
 206.475585938 -55 188.475585938 -41 174.475585938 -31 c 0
 138.475585938 -4 106.475585938 30 85.4755859375 70 c 0
 8.4755859375 218 44.4755859375 406 82.4755859375 560 c 0
 93.4755859375 604 104.475585938 649 123.475585938 690 c 0
 130.475585938 706 137.475585938 726 157.475585938 729 c 0
EndSplineSet
EndChar

StartChar: asciicircum
Encoding: 94 94 48
Width: 310
VWidth: 0
Flags: HW
LayerCount: 2
Back
Fore
SplineSet
133.518554688 600 m 1
 126.518554688 584 113.518554688 570 104.518554688 554 c 0
 98.5185546875 544 94.5185546875 531 85.5185546875 523 c 0
 73.5185546875 513 55.5185546875 513 45.5185546875 526 c 0
 32.5185546875 543 45.5185546875 562 53.5185546875 578 c 0
 69.5185546875 610 113.518554688 699 161.518554688 663 c 0
 180.518554688 649 191.518554688 625 204.518554688 606 c 0
 219.518554688 584 238.518554688 563 254.518554688 542 c 0
 264.518554688 529 276.518554688 513 266.518554688 496 c 0
 255.518554688 477 233.518554688 481 219.518554688 494 c 0
 190.518554688 522 151.518554688 562 137.518554688 600 c 1
 133.518554688 600 l 1
EndSplineSet
EndChar

StartChar: p
Encoding: 112 112 49
Width: 389
VWidth: 0
Flags: HW
LayerCount: 2
Back
Fore
SplineSet
99 2 m 1
 99 -39 100 -80 101 -121 c 0
 102 -137 105 -156 104 -172 c 0
 102 -191 82 -204 65 -195 c 0
 50 -187 48 -170 46 -155 c 0
 42 -119 40 -82 40 -45 c 0
 40 42 44 129 47 216 c 0
 48 240 51 264 51 288 c 0
 51 303 43 314 48 330 c 0
 61 370 104 383 142 377 c 0
 237 363 347 293 349 188 c 0
 351 99 266 22 185 2 c 0
 157 -5 126 -8 99 2 c 1
105 320 m 1
 111 260 101 197 101 136 c 0
 101 118 95 86 102 70 c 0
 121 29 191 64 215 79 c 0
 231 89 246 99 258 114 c 0
 268 126 278 141 283 156 c 0
 308 225 247 278 189 303 c 0
 163 314 134 327 105 320 c 1
EndSplineSet
EndChar

StartChar: f
Encoding: 102 102 50
Width: 397
VWidth: 0
Flags: HW
LayerCount: 2
Back
Fore
SplineSet
143.486328125 378 m 1
 139.486328125 391 142.486328125 407 142.486328125 421 c 0
 142.486328125 470 150.486328125 533 193.486328125 564 c 0
 244.486328125 601 341.486328125 596 355.486328125 522 c 0
 359.486328125 499 359.486328125 457 325.486328125 462 c 0
 289.486328125 467 313.486328125 516 281.486328125 528 c 0
 258.486328125 537 229.486328125 522 217.486328125 502 c 0
 198.486328125 472 195.486328125 412 203.486328125 378 c 1
 228.486328125 385 278.486328125 383 303.486328125 377 c 0
 314.486328125 374 322.486328125 366 324.486328125 355 c 0
 330.486328125 312 258.486328125 321 233.486328125 320 c 0
 223.486328125 320 213.486328125 318 203.486328125 320 c 1
 206.486328125 238 213.486328125 156 209.486328125 74 c 0
 208.486328125 50 216.486328125 -5 175.486328125 2 c 0
 144.486328125 8 153.486328125 55 153.486328125 78 c 0
 153.486328125 158 148.486328125 238 143.486328125 318 c 1
 119.486328125 318 79.486328125 308 57.486328125 317 c 0
 36.486328125 325 33.486328125 354 53.486328125 366 c 0
 77.486328125 380 116.486328125 372 143.486328125 378 c 1
EndSplineSet
EndChar

StartChar: x
Encoding: 120 120 51
Width: 373
VWidth: 0
Flags: HW
LayerCount: 2
Back
Fore
SplineSet
177.352539062 137 m 5
 165.352539062 109 138.352539062 84 120.352539062 59 c 4
 109.352539062 43 100.352539062 23 86.3525390625 10 c 4
 67.3525390625 -7 36.3525390625 6 40.3525390625 33 c 4
 42.3525390625 46 52.3525390625 58 58.3525390625 69 c 4
 74.3525390625 97 92.3525390625 123 111.352539062 149 c 4
 118.352539062 159 142.352539062 180 142.352539062 192 c 4
 142.352539062 203 127.352539062 218 122.352539062 227 c 4
 105.352539062 257 88.3525390625 286 70.3525390625 315 c 4
 63.3525390625 327 49.3525390625 340 49.3525390625 355 c 4
 49.3525390625 380 78.3525390625 392 96.3525390625 375 c 4
 115.352539062 357 127.352539062 329 141.352539062 307 c 4
 154.352539062 286 172.352539062 264 181.352539062 241 c 5
 220.352539062 282 244.352539062 337 285.352539062 375 c 4
 305.352539062 394 338.352539062 377 332.352539062 349 c 4
 329.352539062 335 314.352539062 323 306.352539062 311 c 4
 285.352539062 283 265.352539062 254 245.352539062 225 c 4
 238.352539062 215 224.352539062 201 221.352539062 189 c 4
 218.352539062 177 237.352539062 157 243.352539062 147 c 4
 260.352539062 121 277.352539062 95 297.352539062 71 c 4
 306.352539062 60 321.352539062 46 323.352539062 31 c 4
 327.352539062 3 295.352539062 -9 276.352539062 8 c 4
 240.352539062 39 196.352539062 93 179.352539062 137 c 5
 177.352539062 137 l 5
EndSplineSet
EndChar

StartChar: E
Encoding: 69 69 52
Width: 374
VWidth: 0
Flags: HW
LayerCount: 2
Back
Fore
SplineSet
110.903320312 62 m 1
 148.903320312 68 186.903320312 64 224.903320312 64 c 0
 251.903320312 64 279.903320312 67 306.903320312 66 c 0
 324.903320312 65 338.903320312 48 331.903320312 30 c 0
 323.903320312 8 292.903320312 9 272.903320312 8 c 0
 218.903320312 4 162.903320312 4 108.903320312 4 c 0
 89.9033203125 4 66.9033203125 6 57.9033203125 26 c 0
 52.9033203125 38 52.9033203125 53 50.9033203125 66 c 0
 43.9033203125 106 44.9033203125 146 42.9033203125 186 c 0
 36.9033203125 291 41.9033203125 398 42.9033203125 503 c 0
 42.9033203125 535 44.9033203125 566 44.9033203125 598 c 0
 44.9033203125 611 39.9033203125 627 42.9033203125 640 c 0
 48.9033203125 665 78.9033203125 666 98.9033203125 666 c 0
 154.903320312 666 211.903320312 665 266.903320312 668 c 0
 287.903320312 669 321.903320312 678 331.903320312 652 c 0
 343.903320312 622 306.903320312 613 285.903320312 611 c 0
 223.903320312 604 160.903320312 610 98.9033203125 610 c 1
 107.903320312 568 98.9033203125 518 98.9033203125 476 c 0
 98.9033203125 439 105.903320312 397 98.9033203125 360 c 1
 154.903320312 360 215.903320312 366 270.903320312 358 c 0
 294.903320312 355 305.903320312 325 284.903320312 309 c 0
 271.903320312 299 250.903320312 301 234.903320312 300 c 0
 191.903320312 298 140.903320312 312 98.9033203125 302 c 1
 100.903320312 222 l 1
 110.903320312 62 l 1
EndSplineSet
EndChar

StartChar: T
Encoding: 84 84 53
Width: 573
VWidth: 0
Flags: HWO
LayerCount: 2
Back
Fore
SplineSet
275.25 606 m 1
 242.25 606 210.25 602 177.25 602 c 0
 147.25 602 105.25 595 77.25 606 c 0
 54.25 615 54.25 649 77.25 658 c 0
 101.25 668 142.25 662 169.25 664 c 0
 254.25 671 339.25 673 423.25 681 c 0
 449.25 683 487.25 690 513.25 683 c 0
 531.25 678 538.25 657 529.25 642 c 0
 519.25 625 492.25 628 475.25 626 c 0
 427.25 621 373.25 625 327.25 614 c 1
 333.25 601 331.25 584 332.25 569 c 0
 333.25 535 335.25 502 335.25 468 c 0
 336.25 357 334.25 245 334.25 134 c 0
 334.25 99 340.25 56 332.25 22 c 0
 328.25 7 312.25 -4 297.25 1 c 0
 280.25 6 278.25 24 278.25 39 c 0
 278.25 75 275.25 112 275.25 148 c 0
 275.25 303 276.25 451 275.25 606 c 1
EndSplineSet
EndChar

StartChar: three
Encoding: 51 51 54
Width: 406
VWidth: 0
Flags: HW
LayerCount: 2
Back
Fore
SplineSet
262.005859375 408 m 1
 344.005859375 404 369.005859375 338 366.005859375 266 c 0
 363.005859375 194 344.005859375 126 298.005859375 68 c 0
 268.005859375 30 228.005859375 3 178.005859375 8 c 0
 136.005859375 12 94.005859375 40 64.005859375 67 c 0
 50.005859375 79 33.005859375 96 43.005859375 116 c 0
 50.005859375 129 67.005859375 133 80.005859375 127 c 0
 94.005859375 121 104.005859375 106 116.005859375 97 c 0
 133.005859375 84 155.005859375 73 176.005859375 67 c 0
 226.005859375 54 261.005859375 113 280.005859375 150 c 0
 302.005859375 193 309.005859375 242 306.005859375 290 c 0
 305.005859375 311 302.005859375 335 280.005859375 344 c 0
 239.005859375 360 213.005859375 328 178.005859375 318 c 0
 160.005859375 313 143.005859375 326 141.005859375 344 c 0
 138.005859375 371 174.005859375 392 189.005859375 410 c 0
 219.005859375 445 242.005859375 494 248.005859375 540 c 0
 250.005859375 558 251.005859375 580 240.005859375 596 c 0
 214.005859375 634 146.005859375 584 126.005859375 562 c 0
 118.005859375 553 114.005859375 540 104.005859375 533 c 0
 86.005859375 520 59.005859375 534 61.005859375 557 c 0
 63.005859375 578 81.005859375 597 96.005859375 611 c 0
 137.005859375 649 218.005859375 692 270.005859375 649 c 0
 342.005859375 589 297.005859375 475 262.005859375 408 c 1
EndSplineSet
EndChar

StartChar: hyphen
Encoding: 45 45 55
Width: 359
VWidth: 0
Flags: HW
LayerCount: 2
Back
Fore
SplineSet
83.4873046875 245 m 0
 125.487304688 249 169.487304688 242 211.487304688 242 c 0
 238.487304688 242 269.487304688 248 295.487304688 243 c 0
 323.487304688 238 327.487304688 201 301.487304688 190 c 0
 286.487304688 184 269.487304688 185 253.487304688 184 c 0
 207.487304688 180 159.487304688 184 113.487304688 188 c 0
 96.4873046875 190 70.4873046875 182 55.4873046875 189 c 0
 38.4873046875 197 34.4873046875 220 48.4873046875 233 c 0
 57.4873046875 242 71.4873046875 244 83.4873046875 245 c 0
EndSplineSet
EndChar

StartChar: at
Encoding: 64 64 56
Width: 532
VWidth: 0
Flags: HW
LayerCount: 2
Back
Fore
SplineSet
244.390625 667 m 0
 293.390625 673 342.390625 628 367.390625 590 c 0
 413.390625 519 429.390625 432 399.390625 352 c 0
 385.390625 314 355.390625 275 315.390625 263 c 0
 303.390625 260 291.390625 260 279.390625 264 c 0
 273.390625 266 265.390625 272 259.390625 271 c 0
 251.390625 270 242.390625 258 235.390625 254 c 0
 212.390625 241 181.390625 229 155.390625 240 c 0
 136.390625 248 128.390625 271 125.390625 290 c 0
 119.390625 333 160.390625 393 195.390625 413 c 0
 237.390625 437 283.390625 427 292.390625 374 c 0
 294.390625 360 284.390625 332 295.390625 323 c 0
 305.390625 315 326.390625 343 332.390625 350 c 0
 377.390625 409 354.390625 503 316.390625 558 c 0
 293.390625 592 251.390625 621 211.390625 596 c 0
 174.390625 573 157.390625 530 141.390625 492 c 0
 105.390625 408 88.390625 327 111.390625 236 c 0
 123.390625 187 145.390625 143 193.390625 122 c 0
 258.390625 93 325.390625 110 389.390625 133 c 0
 412.390625 141 440.390625 162 465.390625 162 c 0
 493.390625 162 502.390625 125 479.390625 111 c 0
 438.390625 85 380.390625 67 333.390625 56 c 0
 304.390625 49 274.390625 49 244.390625 51 c 0
 221.390625 53 198.390625 58 177.390625 66 c 0
 43.390625 117 22.390625 298 51.390625 420 c 0
 57.390625 445 66.390625 470 76.390625 494 c 0
 109.390625 576 148.390625 656 244.390625 667 c 0
225.390625 368 m 1
 203.390625 351 182.390625 321 181.390625 292 c 1
 213.390625 301 239.390625 334 225.390625 368 c 1
EndSplineSet
EndChar

StartChar: parenright
Encoding: 41 41 57
Width: 246
VWidth: 0
Flags: HW
LayerCount: 2
Back
Fore
SplineSet
88.5078125 737 m 0
 111.5078125 742 123.5078125 718 128.5078125 700 c 0
 143.5078125 650 153.5078125 598 167.5078125 548 c 0
 213.5078125 381 224.5078125 214 167.5078125 48 c 0
 153.5078125 8 139.5078125 -41 109.5078125 -72 c 0
 99.5078125 -82 86.5078125 -96 71.5078125 -98 c 0
 48.5078125 -101 31.5078125 -75 44.5078125 -56 c 0
 54.5078125 -42 70.5078125 -34 78.5078125 -18 c 0
 172.5078125 157 152.5078125 357 110.5078125 542 c 0
 98.5078125 596 80.5078125 650 68.5078125 704 c 0
 65.5078125 719 73.5078125 734 88.5078125 737 c 0
EndSplineSet
EndChar

StartChar: grave
Encoding: 96 96 58
Width: 210
VWidth: 0
Flags: HW
LayerCount: 2
Back
Fore
SplineSet
62.521484375 689 m 0
 73.521484375 692 85.521484375 686 91.521484375 676 c 0
 98.521484375 663 95.521484375 649 104.521484375 636 c 0
 121.521484375 612 152.521484375 600 166.521484375 574 c 0
 174.521484375 559 167.521484375 540 150.521484375 535 c 0
 134.521484375 530 120.521484375 540 108.521484375 549 c 0
 79.521484375 570 53.521484375 597 43.521484375 632 c 0
 37.521484375 652 36.521484375 683 62.521484375 689 c 0
EndSplineSet
EndChar

StartChar: a
Encoding: 97 97 59
Width: 484
VWidth: 0
Flags: HWO
LayerCount: 2
Back
Fore
SplineSet
346.264648438 134 m 1
 309.264648438 44 177.264648438 -47 88.2646484375 30 c 0
 20.2646484375 89 33.2646484375 199 71.2646484375 270 c 4
 88.2646484375 302 110.264648438 336 140.264648438 358 c 0
 185.264648438 391 251.264648438 397 298.264648438 364 c 4
 326.264648438 345 329.264648438 315 349.264648438 291 c 0
 356.264648438 282 369.264648438 283 376.264648438 272 c 0
 383.264648438 261 378.264648438 248 380.264648438 236 c 0
 383.264648438 212 390.264648438 187 397.264648438 164 c 0
 405.264648438 137 418.264648438 111 431.264648438 86 c 0
 437.264648438 73 454.264648438 38 449.264648438 23 c 4
 443.264648438 3 416.264648438 -3 402.264648438 13 c 4
 378.264648438 40 362.264648438 103 346.264648438 134 c 1
213.264648438 329 m 0
 140.264648438 317 100.264648438 216 100.264648438 150 c 0
 100.264648438 101 126.264648438 54 181.264648438 63 c 0
 238.264648438 72 280.264648438 126 299.264648438 176 c 0
 303.264648438 188 315.264648438 208 313.264648438 221 c 0
 312.264648438 228 304.264648438 233 302.264648438 240 c 0
 298.264648438 252 300.264648438 265 295.264648438 278 c 0
 282.264648438 312 250.264648438 335 213.264648438 329 c 0
EndSplineSet
EndChar

StartChar: t
Encoding: 116 116 60
Width: 407
VWidth: 0
Flags: HWO
LayerCount: 2
Back
Fore
SplineSet
149.713867188 379 m 1
 149.713867188 446 167.713867188 490 173.713867188 557 c 0
 175.713867188 578 173.713867188 615 204.713867188 613 c 0
 235.713867188 611 231.713867188 576 229.713867188 555 c 0
 223.713867188 491 220.713867188 446 207.713867188 383 c 1
 239.713867188 383 270.713867188 386 302.713867188 386 c 0
 316.713867188 386 333.713867188 387 342.713867188 375 c 0
 355.713867188 359 346.713867188 337 327.713867188 331 c 0
 290.713867188 320 241.713867188 323 203.713867188 323 c 1
 199.713867188 270 196.713867188 194 202.713867188 141 c 0
 204.713867188 121.05 205.713867188 101.1 217.713867188 84 c 4
 239.713867188 53 281.713867188 65 313.713867188 62 c 4
 328.713867188 60 340.713867188 48 339.713867188 32 c 4
 337.713867188 6 312.713867188 7 293.713867188 6 c 4
 249.713867188 4 200.713867188 9 171.713867188 46 c 4
 118.713867188 114.260714286 142.713867188 243.857142857 143.713867188 323 c 1
 123.713867188 323 84.7138671875 317 67.7138671875 330 c 0
 51.7138671875 342 56.7138671875 368 73.7138671875 376 c 0
 91.7138671875 385 129.713867188 381 149.713867188 379 c 1
EndSplineSet
EndChar

StartChar: y
Encoding: 121 121 61
Width: 383
VWidth: 0
Flags: HW
LayerCount: 2
Back
Fore
SplineSet
283.266601562 126 m 1
 270.266601562 113 261.266601562 92 251.266601562 76 c 0
 229.266601562 43 190.266601562 7 149.266601562 4 c 0
 101.266601562 1 67.2666015625 34 52.2666015625 76 c 0
 32.2666015625 133 42.2666015625 203 44.2666015625 262 c 0
 45.2666015625 289 40.2666015625 363 65.2666015625 379 c 0
 85.2666015625 392 109.266601562 374 107.266601562 352 c 0
 100.266601562 285 99.2666015625 210 99.2666015625 143 c 0
 99.2666015625 120 102.266601562 81 125.266601562 69 c 0
 150.266601562 55 178.266601562 79 193.266601562 98 c 0
 230.266601562 146 264.266601562 214 280.266601562 272 c 0
 287.266601562 296 287.266601562 390 323.266601562 370 c 0
 338.266601562 362 340.266601562 353 341.266601562 338 c 0
 342.266601562 309 341.266601562 273 341.266601562 244 c 0
 341.266601562 159 347.266601562 22 335.266601562 -62 c 0
 329.266601562 -105 309.266601562 -151 269.266601562 -171 c 0
 219.266601562 -196 152.266601562 -191 99.2666015625 -179 c 0
 78.2666015625 -174 39.2666015625 -164 52.2666015625 -134 c 0
 63.2666015625 -107 92.2666015625 -120 113.266601562 -124 c 0
 151.266601562 -132 217.266601562 -142 249.266601562 -115 c 0
 270.266601562 -97 277.266601562 -64 279.266601562 -38 c 0
 282.266601562 -2 283.266601562 34 283.266601562 70 c 0
 283.266601562 88 279.266601562 109 283.266601562 126 c 1
281.266601562 130 m 1
 283.266601562 128 l 1
 281.266601562 130 l 1
EndSplineSet
EndChar

StartChar: F
Encoding: 70 70 62
Width: 412
VWidth: 0
Flags: HW
LayerCount: 2
Back
Fore
SplineSet
101.43359375 604 m 1
 82.43359375 608 73.43359375 630 85.43359375 646 c 0
 91.43359375 655 103.43359375 658 113.43359375 661 c 0
 163.43359375 675 216.43359375 678 267.43359375 680 c 0
 294.43359375 681 322.43359375 685 349.43359375 680 c 0
 379.43359375 675 381.43359375 632 351.43359375 625 c 0
 320.43359375 617 285.43359375 621 253.43359375 620 c 0
 220.43359375 619 188.43359375 614 155.43359375 612 c 1
 156.43359375 549 l 1
 157.43359375 428 l 1
 157.43359375 336 l 1
 208.43359375 332 259.43359375 347 310.43359375 342 c 0
 332.43359375 340 349.43359375 317 333.43359375 297 c 0
 322.43359375 283 299.43359375 284 283.43359375 282 c 0
 257.43359375 280 231.43359375 278 205.43359375 278 c 0
 189.43359375 278 173.43359375 282 157.43359375 278 c 1
 164.43359375 253 158.43359375 219 158.43359375 193 c 0
 158.43359375 137 163.43359375 76 156.43359375 20 c 0
 153.43359375 -3 124.43359375 -14 108.43359375 4 c 0
 97.43359375 16 99.43359375 39 99.43359375 54 c 2
 99.43359375 164 l 2
 99.43359375 311 101.43359375 457 101.43359375 604 c 1
EndSplineSet
EndChar

StartChar: U
Encoding: 85 85 63
Width: 527
VWidth: 0
Flags: HW
LayerCount: 2
Back
Fore
SplineSet
74.3876953125 667 m 0
 90.3876953125 672 108.387695312 659 111.387695312 643 c 0
 113.387695312 631 105.387695312 618 104.387695312 606 c 0
 101.387695312 576 102.387695312 547 100.387695312 517 c 0
 94.3876953125 401 94.3876953125 276 119.387695312 162 c 0
 131.387695312 106 152.387695312 54 212.387695312 37 c 0
 279.387695312 18 339.387695312 71 369.387695312 126 c 0
 428.387695312 235 427.387695312 370 429.387695312 491 c 0
 429.387695312 519 430.387695312 548 428.387695312 576 c 0
 427.387695312 592 420.387695312 612 422.387695312 628 c 0
 424.387695312 641 437.387695312 652 450.387695312 652 c 0
 476.387695312 651 479.387695312 623 481.387695312 603 c 0
 487.387695312 550 488.387695312 495 486.387695312 441 c 0
 481.387695312 331 480.387695312 217 432.387695312 116 c 0
 398.387695312 45 340.387695312 -15 260.387695312 -27 c 0
 180.387695312 -39 106.387695312 15 79.3876953125 88 c 0
 36.3876953125 204 37.3876953125 345 42.3876953125 467 c 0
 44.3876953125 517 44.3876953125 567 50.3876953125 616 c 0
 52.3876953125 635 51.3876953125 660 74.3876953125 667 c 0
EndSplineSet
EndChar

StartChar: four
Encoding: 52 52 64
Width: 437
VWidth: 0
Flags: HW
LayerCount: 2
Back
Fore
SplineSet
379.536132812 372 m 1
 418.536132812 352 378.536132812 328 380.536132812 302 c 0
 387.536132812 225 384.536132812 148 392.536132812 71 c 0
 394.536132812 48 400.536132812 2 364.536132812 5 c 0
 332.536132812 8 336.536132812 54 334.536132812 77 c 0
 328.536132812 134 328.536132812 191 322.536132812 247 c 0
 320.536132812 263 327.536132812 291 319.536132812 306 c 0
 316.536132812 312 306.536132812 310 301.536132812 309 c 0
 284.536132812 307 267.536132812 305 250.536132812 303 c 0
 201.536132812 297 151.536132812 294 101.536132812 294 c 0
 81.5361328125 294 55.5361328125 297 44.5361328125 316 c 0
 29.5361328125 343 55.5361328125 382 67.5361328125 406 c 2
 165.536132812 602 l 2
 176.536132812 624 185.536132812 666 205.536132812 681 c 0
 223.536132812 695 250.536132812 681 249.536132812 658 c 0
 247.536132812 628 222.536132812 593 210.536132812 566 c 0
 198.536132812 538 185.536132812 511 172.536132812 484 c 0
 152.536132812 441 127.536132812 398 109.536132812 354 c 1
 321.536132812 368 l 1
 317.536132812 386 323.536132812 407 323.536132812 426 c 0
 324.536132812 485 331.536132812 546 325.536132812 605 c 0
 323.536132812 627 308.536132812 667 343.536132812 672 c 0
 376.536132812 676 379.536132812 629 381.536132812 606 c 0
 385.536132812 556 383.536132812 505 382.536132812 455 c 0
 381.536132812 428 384.536132812 399 379.536132812 372 c 1
EndSplineSet
EndChar

StartChar: endash
Encoding: 8211 8211 65
Width: 346
VWidth: 0
Flags: HW
LayerCount: 2
Back
Fore
SplineSet
143.25 353 m 0
 185.25 358 248.25 361 288.25 346 c 0
 315.25 336 310.25 298 283.25 293 c 0
 264.25 289 243.25 293 224.25 294 c 0
 188.25 295 152.25 294 116.25 294 c 0
 98.25 294 71.25 285 54.25 294 c 0
 35.25 304 35.25 333 54.25 343 c 0
 78.25 355 117.25 350 143.25 353 c 0
EndSplineSet
EndChar

StartChar: slash
Encoding: 47 47 66
Width: 453
VWidth: 0
Flags: HW
LayerCount: 2
Back
Fore
SplineSet
377.885742188 641 m 0
 397.885742188 647 416.885742188 631 412.885742188 610 c 0
 404.885742188 575 377.885742188 539 362.885742188 506 c 0
 299.885742188 370 232.885742188 236 158.885742188 106 c 0
 141.885742188 76 123.885742188 46 105.885742188 16 c 0
 97.8857421875 3 87.8857421875 -13 70.8857421875 -15 c 0
 52.8857421875 -17 35.8857421875 0 40.8857421875 18 c 0
 43.8857421875 28 51.8857421875 37 56.8857421875 46 c 0
 68.8857421875 68 81.8857421875 90 93.8857421875 112 c 0
 166.885742188 241 233.885742188 374 299.885742188 506 c 0
 315.885742188 539 333.885742188 571 349.885742188 604 c 0
 356.885742188 617 361.885742188 636 377.885742188 641 c 0
EndSplineSet
EndChar

StartChar: asterisk
Encoding: 42 42 67
Width: 430
VWidth: 0
Flags: HW
LayerCount: 2
Back
Fore
SplineSet
191.495117188 578 m 1
 191.495117188 602 188.495117188 648 202.495117188 668 c 0
 215.495117188 686 244.495117188 684 251.495117188 662 c 0
 257.495117188 646 249.495117188 621 249.495117188 604 c 1
 270.495117188 625 294.495117188 665 323.495117188 675 c 0
 345.495117188 683 369.495117188 663 360.495117188 640 c 0
 356.495117188 630 346.495117188 625 339.495117188 617 c 0
 323.495117188 600 309.495117188 583 293.495117188 566 c 1
 314.495117188 567 344.495117188 577 365.495117188 570 c 0
 386.495117188 563 390.495117188 535 373.495117188 522 c 0
 348.495117188 504 297.495117188 507 267.495117188 502 c 1
 290.495117188 481 312.495117188 457 339.495117188 441 c 0
 354.495117188 432 379.495117188 431 387.495117188 414 c 0
 399.495117188 387 372.495117188 372 349.495117188 376 c 0
 309.495117188 384 275.495117188 410 247.495117188 438 c 1
 246.495117188 423 248.495117188 405 240.495117188 392 c 0
 229.495117188 375 204.495117188 375 193.495117188 392 c 0
 183.495117188 408 187.495117188 436 187.495117188 454 c 1
 170.495117188 437 149.495117188 409 125.495117188 403 c 0
 103.495117188 397 84.4951171875 419 93.4951171875 440 c 0
 101.495117188 459 122.495117188 473 135.495117188 488 c 1
 114.495117188 485 78.4951171875 477 57.4951171875 485 c 0
 37.4951171875 493 33.4951171875 520 51.4951171875 533 c 0
 61.4951171875 540 74.4951171875 537 85.4951171875 538 c 0
 104.495117188 539 123.495117188 542 141.495117188 546 c 1
 118.495117188 566 82.4951171875 596 72.4951171875 626 c 0
 65.4951171875 647 83.4951171875 668 105.495117188 662 c 0
 119.495117188 658 127.495117188 642 136.495117188 632 c 0
 153.495117188 612 173.495117188 596 191.495117188 578 c 1
EndSplineSet
EndChar

StartChar: braceleft
Encoding: 123 123 68
Width: 409
VWidth: 0
Flags: HW
LayerCount: 2
Back
Fore
SplineSet
180.008789062 380 m 1
 201.008789062 460 154.008789062 557 200.008789062 630 c 0
 220.008789062 661 254.008789062 689 292.008789062 691 c 0
 314.008789062 692 341.008789062 681 341.008789062 655 c 0
 341.008789062 638 325.008789062 624 308.008789062 628 c 0
 300.008789062 630 294.008789062 636 286.008789062 634 c 0
 268.008789062 629 249.008789062 604 242.008789062 588 c 0
 230.008789062 557 241.008789062 519 243.008789062 487 c 0
 246.008789062 438 242.008789062 389 235.008789062 341 c 0
 232.008789062 322 229.008789062 303 217.008789062 288 c 0
 209.008789062 278 192.008789062 275 192.008789062 260 c 0
 193.008789062 203 211.008789062 117 256.008789062 78 c 0
 269.008789062 67 289.008789062 56 306.008789062 60 c 0
 318.008789062 63 331.008789062 72 344.008789062 71 c 0
 359.008789062 70 372.008789062 55 369.008789062 40 c 0
 366.008789062 22 348.008789062 14 332.008789062 9 c 0
 292.008789062 -4 250.008789062 7 218.008789062 34 c 0
 154.008789062 88 135.008789062 195 132.008789062 274 c 1
 114.008789062 276 97.0087890625 285 82.0087890625 295 c 0
 69.0087890625 304 57.0087890625 316 49.0087890625 330 c 0
 34.0087890625 359 38.0087890625 394 59.0087890625 420 c 0
 81.0087890625 447 124.008789062 461 152.008789062 434 c 0
 159.008789062 427 164.008789062 419 168.008789062 410 c 0
 173.008789062 400 177.008789062 391 178.008789062 380 c 1
 180.008789062 380 l 1
110.008789062 388 m 1
 91.0087890625 366 103.008789062 349 128.008789062 338 c 1
 123.008789062 354 123.008789062 376 110.008789062 388 c 1
180.008789062 380 m 1
 182.008789062 378 l 1
 180.008789062 380 l 1
EndSplineSet
EndChar

StartChar: g
Encoding: 103 103 69
Width: 417
VWidth: 0
Flags: HW
LayerCount: 2
Back
Fore
SplineSet
296.15625 96.0400390625 m 5
 252.95703125 5.5595703125 123.356445312 -54.759765625 65.7568359375 52.3603515625 c 4
 30.236328125 117.879882812 52.31640625 196.919921875 80.15625 260.360351562 c 4
 89.7568359375 283.240234375 99.3564453125 306.120117188 115.676757812 324.83984375 c 4
 131.99609375 343.559570312 152.15625 361.240234375 173.276367188 373.719726562 c 4
 210.716796875 395.559570312 261.596679688 390.360351562 298.076171875 369.559570312 c 4
 310.556640625 362.280273438 318.236328125 350.83984375 329.756835938 343.559570312 c 4
 343.196289062 335.240234375 357.596679688 343.559570312 366.236328125 322.759765625 c 4
 380.63671875 288.440429688 357.596679688 241.639648438 355.676757812 206.280273438 c 4
 351.836914062 128.280273438 358.556640625 49.240234375 349.916992188 -28.759765625 c 4
 345.116210938 -70.3603515625 334.556640625 -116.120117188 305.756835938 -146.280273438 c 4
 251.036132812 -204.51953125 189.596679688 -172.280273438 131.036132812 -137.959960938 c 4
 111.836914062 -126.51953125 67.6767578125 -110.919921875 77.2763671875 -78.6796875 c 4
 83.99609375 -55.7998046875 105.116210938 -57.8798828125 121.436523438 -66.2001953125 c 4
 155.99609375 -84.919921875 201.116210938 -123.400390625 241.436523438 -120.280273438 c 4
 258.716796875 -119.240234375 274.076171875 -93.240234375 280.796875 -78.6796875 c 4
 297.116210938 -40.2001953125 297.116210938 4.51953125 298.076171875 46.1201171875 c 4
 298.076171875 61.7197265625 301.916992188 81.48046875 296.15625 96.0400390625 c 5
217.436523438 330.040039062 m 4
 198.236328125 326.919921875 182.876953125 311.3203125 169.436523438 297.799804688 c 4
 132.95703125 261.400390625 107.036132812 195.879882812 104.15625 141.799804688 c 4
 102.236328125 103.3203125 118.556640625 47.16015625 163.676757812 54.4404296875 c 4
 182.876953125 57.5595703125 200.15625 76.2802734375 213.596679688 88.759765625 c 4
 254.876953125 127.240234375 294.236328125 191.719726562 300.95703125 251 c 4
 306.716796875 304.040039062 262.556640625 338.360351562 217.436523438 330.040039062 c 4
298.076171875 98.1201171875 m 5
 299.99609375 96.0400390625 l 5
 298.076171875 98.1201171875 l 5
EndSplineSet
EndChar

StartChar: i
Encoding: 105 105 70
Width: 255
VWidth: 0
Flags: HW
LayerCount: 2
Back
Fore
SplineSet
103.068359375 549 m 0
 158.068359375 555 155.068359375 468 105.068359375 462 c 0
 77.068359375 459 57.068359375 491 63.068359375 516 c 0
 67.068359375 535 84.068359375 547 103.068359375 549 c 0
98.068359375 353 m 0
 133.068359375 365 134.068359375 322 135.068359375 300 c 0
 136.068359375 245 134.068359375 189 135.068359375 134 c 0
 136.068359375 111 133.068359375 79 143.068359375 58 c 0
 149.068359375 46 171.068359375 53 180.068359375 40 c 0
 190.068359375 25 184.068359375 6 168.068359375 -1 c 0
 127.068359375 -18 94.068359375 9 84.068359375 48 c 0
 66.068359375 116 76.068359375 192 78.068359375 262 c 0
 79.068359375 286 70.068359375 343 98.068359375 353 c 0
EndSplineSet
EndChar

StartChar: z
Encoding: 122 122 71
Width: 392
VWidth: 0
Flags: HW
LayerCount: 2
Back
Fore
SplineSet
269.029296875 331.357421875 m 5
 238.04296875 331.357421875 207.055664062 331.357421875 176.067382812 327.076171875 c 4
 156.016601562 324.505859375 135.965820312 320.22265625 116.826171875 315.083984375 c 4
 103.155273438 311.658203125 84.927734375 302.236328125 70.345703125 306.51953125 c 4
 49.3828125 312.514648438 48.4716796875 339.922851562 66.69921875 349.344726562 c 4
 83.1044921875 357.91015625 104.978515625 362.192382812 123.206054688 366.475585938 c 4
 171.509765625 377.610351562 221.637695312 381.892578125 270.852539062 381.036132812 c 4
 293.637695312 380.1796875 333.739257812 376.75390625 335.5625 349.344726562 c 4
 338.296875 315.94140625 298.1953125 283.393554688 278.14453125 259.41015625 c 4
 250.801757812 226.86328125 225.283203125 194.315429688 198.852539062 161.767578125 c 4
 172.421875 130.076171875 142.345703125 94.958984375 125.029296875 57.2724609375 c 5
 156.016601562 57.2724609375 186.092773438 59.8408203125 216.168945312 62.4111328125 c 4
 235.30859375 64.1240234375 254.447265625 65.8369140625 272.67578125 69.2626953125 c 4
 287.258789062 71.83203125 307.30859375 78.685546875 321.891601562 74.4013671875 c 4
 340.119140625 69.2626953125 344.676757812 45.28125 329.182617188 34.1455078125 c 4
 315.51171875 24.724609375 292.7265625 24.724609375 276.321289062 21.2978515625 c 4
 228.017578125 11.8759765625 177.889648438 7.59375 128.674804688 7.59375 c 4
 106.80078125 7.59375 78.5478515625 8.4501953125 67.611328125 29.86328125 c 4
 53.939453125 56.416015625 84.015625 95.814453125 97.6865234375 117.227539062 c 4
 145.991210938 192.602539062 207.966796875 265.405273438 269.029296875 331.357421875 c 5
EndSplineSet
EndChar

StartChar: I
Encoding: 73 73 72
Width: 146
VWidth: 0
Flags: HW
LayerCount: 2
Back
Fore
SplineSet
66.3720703125 643 m 0
 80.3720703125 646 94.3720703125 636 97.3720703125 622 c 0
 104.372070312 589 100.372070312 551 100.372070312 517 c 0
 100.372070312 390 102.372070312 263 102.372070312 136 c 0
 102.372070312 108 119.372070312 25 79.3720703125 19 c 0
 65.3720703125 17 52.3720703125 27 49.3720703125 40 c 0
 41.3720703125 73 43.3720703125 112 42.3720703125 146 c 0
 37.3720703125 271 41.3720703125 397 44.3720703125 522 c 0
 45.3720703125 552 37.3720703125 592 43.3720703125 621 c 0
 45.3720703125 633 54.3720703125 640 66.3720703125 643 c 0
EndSplineSet
EndChar

StartChar: V
Encoding: 86 86 73
Width: 509
VWidth: 0
Flags: HW
LayerCount: 2
Back
Fore
SplineSet
210.38671875 80 m 1
 215.38671875 108 231.38671875 137 241.38671875 164 c 0
 258.38671875 208 272.38671875 254 288.38671875 298 c 0
 306.38671875 347 325.38671875 397 344.38671875 446 c 0
 366.38671875 502 386.38671875 562 415.38671875 614 c 0
 426.38671875 634 458.38671875 641 467.38671875 614 c 0
 472.38671875 600 462.38671875 585 457.38671875 572 c 0
 444.38671875 543 432.38671875 513 420.38671875 484 c 0
 374.38671875 368 338.38671875 249 294.38671875 132 c 0
 280.38671875 95 265.38671875 58 249.38671875 22 c 0
 242.38671875 5 232.38671875 -14 212.38671875 -16 c 0
 192.38671875 -18 180.38671875 -1 171.38671875 14 c 0
 150.38671875 50 142.38671875 94 132.38671875 134 c 0
 101.38671875 257 78.38671875 385 58.38671875 510 c 0
 53.38671875 539 48.38671875 568 43.38671875 597 c 0
 41.38671875 610 36.38671875 626 44.38671875 638 c 0
 56.38671875 657 86.38671875 653 93.38671875 632 c 0
 99.38671875 616 99.38671875 597 102.38671875 580 c 0
 109.38671875 541 117.38671875 501 124.38671875 462 c 0
 133.38671875 413 144.38671875 363 154.38671875 314 c 0
 169.38671875 238 178.38671875 151 210.38671875 80 c 1
EndSplineSet
EndChar

StartChar: five
Encoding: 53 53 74
Width: 412
VWidth: 0
Flags: HW
LayerCount: 2
Back
Fore
SplineSet
70.5927734375 572 m 1
 19.5927734375 591 63.5927734375 632 96.5927734375 639 c 0
 160.592773438 652 228.592773438 662 294.592773438 662 c 0
 316.592773438 662 363.592773438 654 341.592773438 620 c 0
 329.592773438 602 299.592773438 603 280.592773438 602 c 0
 244.592773438 600 208.592773438 597 173.592773438 593 c 0
 160.592773438 591 142.592773438 593 130.592773438 587 c 0
 119.592773438 582 123.592773438 551 123.592773438 540 c 0
 122.592773438 492 121.592773438 439 132.592773438 392 c 1
 204.592773438 438 308.592773438 414 345.592773438 336 c 0
 392.592773438 237 381.592773438 103 280.592773438 43 c 0
 228.592773438 12 155.592773438 0 96.5927734375 15 c 0
 75.5927734375 20 34.5927734375 36 40.5927734375 64 c 0
 43.5927734375 78 56.5927734375 87 70.5927734375 86 c 0
 83.5927734375 85 94.5927734375 74 107.592773438 70 c 0
 126.592773438 65 152.592773438 66 172.592773438 68 c 0
 208.592773438 72 250.592773438 87 276.592773438 114 c 0
 323.592773438 163 322.592773438 255 289.592773438 312 c 0
 263.592773438 358 214.592773438 363 168.592773438 344 c 0
 149.592773438 336 130.592773438 317 108.592773438 323 c 0
 84.5927734375 330 77.5927734375 358 74.5927734375 380 c 0
 68.5927734375 423 68.5927734375 466 68.5927734375 510 c 0
 68.5927734375 530 65.5927734375 553 70.5927734375 572 c 1
EndSplineSet
EndChar

StartChar: emdash
Encoding: 8212 8212 75
Width: 546
VWidth: 0
Flags: HW
LayerCount: 2
Back
Fore
SplineSet
444.686523438 373 m 0
 457.686523438 374 478.686523438 377 490.686523438 371 c 0
 507.686523438 362 511.686523438 338 496.686523438 325 c 0
 475.686523438 308 424.686523438 315 398.686523438 314 c 0
 311.686523438 309 226.686523438 298 139.686523438 305 c 0
 113.686523438 307 31.6865234375 303 40.6865234375 346 c 0
 48.6865234375 387 109.686523438 363 138.686523438 362 c 0
 210.686523438 359 280.686523438 366 352.686523438 371 c 0
 383.686523438 373 413.686523438 370 444.686523438 373 c 0
EndSplineSet
EndChar

StartChar: backslash
Encoding: 92 92 76
Width: 393
VWidth: 0
Flags: HW
LayerCount: 2
Back
Fore
SplineSet
60.6240234375 635 m 0
 80.6240234375 640 92.6240234375 624 99.6240234375 608 c 0
 115.624023438 572 128.624023438 534 141.624023438 496 c 0
 188.624023438 359 242.624023438 223 299.624023438 90 c 0
 308.624023438 68 317.624023438 44 329.624023438 24 c 0
 335.624023438 13 347.624023438 9 351.624023438 -4 c 0
 355.624023438 -19 345.624023438 -35 331.624023438 -39 c 0
 312.624023438 -44 298.624023438 -33 288.624023438 -18 c 0
 269.624023438 9 256.624023438 42 242.624023438 72 c 0
 182.624023438 205 132.624023438 342 86.6240234375 480 c 0
 76.6240234375 509 67.6240234375 538 56.6240234375 566 c 0
 51.6240234375 578 43.6240234375 590 40.6240234375 602 c 0
 37.6240234375 617 45.6240234375 631 60.6240234375 635 c 0
EndSplineSet
EndChar

StartChar: plus
Encoding: 43 43 77
Width: 416
VWidth: 0
Flags: HW
LayerCount: 2
Back
Fore
SplineSet
220.09375 166 m 1
 226.09375 144 223.09375 115 222.09375 93 c 0
 222.09375 84 224.09375 75 220.09375 66 c 0
 211.09375 47 185.09375 43 172.09375 60 c 0
 159.09375 77 162.09375 113 162.09375 134 c 0
 162.09375 142 165.09375 159 159.09375 165 c 0
 154.09375 170 139.09375 167 132.09375 167 c 0
 106.09375 167 43.09375 158 40.09375 196 c 0
 37.09375 236 107.09375 223 132.09375 224 c 0
 139.09375 224 155.09375 221 160.09375 229 c 0
 165.09375 237 162.09375 255 161.09375 264 c 0
 159.09375 283 161.09375 301 160.09375 320 c 0
 159.09375 332 155.09375 343 161.09375 354 c 0
 173.09375 375 203.09375 370 211.09375 348 c 0
 223.09375 313 220.09375 265 220.09375 228 c 1
 263.09375 228 314.09375 236 356.09375 225 c 0
 377.09375 219 384.09375 191 366.09375 177 c 0
 354.09375 168 333.09375 170 318.09375 170 c 0
 287.09375 170 250.09375 173 220.09375 166 c 1
EndSplineSet
EndChar

StartChar: bar
Encoding: 124 124 78
Width: 166
VWidth: 0
Flags: HW
LayerCount: 2
Back
Fore
SplineSet
64.638671875 655 m 0
 83.638671875 658 96.638671875 641 97.638671875 624 c 0
 101.638671875 568 101.638671875 510 101.638671875 454 c 0
 101.638671875 435 100.638671875 409 75.638671875 406 c 0
 47.638671875 403 45.638671875 432 43.638671875 452 c 0
 38.638671875 502 39.638671875 551 41.638671875 601 c 0
 42.638671875 621 36.638671875 651 64.638671875 655 c 0
65.638671875 281 m 0
 94.638671875 290 105.638671875 258 109.638671875 236 c 0
 119.638671875 176 118.638671875 111 123.638671875 50 c 0
 125.638671875 30 131.638671875 -1 105.638671875 -9 c 0
 73.638671875 -19 69.638671875 19 66.638671875 40 c 0
 57.638671875 99 57.638671875 155 55.638671875 214 c 0
 54.638671875 235 34.638671875 271 65.638671875 281 c 0
EndSplineSet
EndChar

StartChar: s
Encoding: 115 115 79
Width: 317
VWidth: 0
Flags: HW
LayerCount: 2
Back
Fore
SplineSet
217.571289062 62 m 1
 194.571289062 125 161.571289062 172 117.571289062 224 c 0
 94.5712890625 252 67.5712890625 298 83.5712890625 336 c 4
 105.571289062 388 179.571289062 390 225.571289062 378 c 4
 245.571289062 373 279.571289062 363 277.571289062 336 c 4
 276.571289062 322 263.571289062 310 248.571289062 311 c 4
 223.571289062 313 204.571289062 330 177.571289062 328 c 4
 168.571289062 327 136.571289062 323 138.571289062 309 c 4
 141.571289062 290 172.571289062 252 184.571289062 238 c 0
 218.571289062 198 251.571289062 155 268.571289062 104 c 0
 275.571289062 82 280.571289062 53 269.571289062 32 c 0
 257.571289062 8 232.571289062 2 207.571289062 2 c 0
 160.571289062 2 103.571289062 17 65.5712890625 45 c 0
 48.5712890625 57 19.5712890625 83 24.5712890625 107 c 0
 28.5712890625 124 47.5712890625 134 63.5712890625 126 c 0
 77.5712890625 119 84.5712890625 102 97.5712890625 93 c 0
 125.571289062 73 182.571289062 54 217.571289062 62 c 1
EndSplineSet
EndChar

StartChar: j
Encoding: 106 106 80
Width: 213
VWidth: 0
Flags: HW
LayerCount: 2
Back
Fore
SplineSet
93.1142578125 533 m 0
 138.114257812 544 174.114257812 467 117.114257812 454 c 0
 72.1142578125 444 49.1142578125 522 93.1142578125 533 c 0
101.114257812 369 m 0
 116.114257812 375 134.114257812 365 138.114257812 350 c 0
 148.114257812 314 145.114257812 268 148.114257812 231 c 0
 154.114257812 143 158.114257812 49 136.114257812 -38 c 0
 122.114257812 -95 90.1142578125 -145 31.1142578125 -161 c 0
 -5.8857421875 -171 -36.8857421875 -164 -68.8857421875 -143 c 0
 -85.8857421875 -131 -99.8857421875 -110 -80.8857421875 -92 c 0
 -56.8857421875 -70 -29.8857421875 -108 -4.8857421875 -109 c 0
 57.1142578125 -111 77.1142578125 -38 85.1142578125 10 c 0
 100.114257812 97 97.1142578125 192 88.1142578125 279 c 0
 86.1142578125 302 73.1142578125 358 101.114257812 369 c 0
EndSplineSet
EndChar

StartChar: C
Encoding: 67 67 81
Width: 498
VWidth: 0
Flags: HW
LayerCount: 2
Back
Fore
SplineSet
222.719726562 667 m 0
 285.719726562 677 342.719726562 652 378.719726562 600 c 0
 392.719726562 580 415.719726562 525 383.719726562 509 c 0
 343.719726562 489 346.719726562 547 333.719726562 566 c 0
 309.719726562 601 272.719726562 619 229.719726562 610 c 0
 184.719726562 600 156.719726562 554 141.719726562 514 c 0
 112.719726562 433 97.7197265625 337 102.719726562 251 c 0
 104.719726562 219 110.719726562 175 129.719726562 148 c 0
 163.719726562 101 235.719726562 30 299.719726562 51 c 0
 340.719726562 65 373.719726562 100 407.719726562 126 c 0
 420.719726562 136 440.719726562 142 452.719726562 126 c 0
 467.719726562 106 449.719726562 89 435.719726562 76 c 0
 402.719726562 47 365.719726562 14 323.719726562 -1 c 0
 230.719726562 -34 124.719726562 40 76.7197265625 118 c 0
 18.7197265625 211 41.7197265625 346 62.7197265625 446 c 0
 70.7197265625 483 78.7197265625 520 93.7197265625 554 c 0
 116.719726562 608 161.719726562 658 222.719726562 667 c 0
EndSplineSet
EndChar

StartChar: J
Encoding: 74 74 82
Width: 420
VWidth: 0
Flags: HW
LayerCount: 2
Back
Fore
SplineSet
328.125976562 661 m 0
 350.125976562 667 361.125976562 648 363.125976562 629 c 0
 368.125976562 584 366.125976562 537 371.125976562 492 c 0
 383.125976562 376 387.125976562 251 350.125976562 140 c 0
 332.125976562 87 296.125976562 29 238.125976562 17 c 0
 184.125976562 6 118.125976562 18 76.1259765625 53 c 0
 57.1259765625 68 21.1259765625 105 52.1259765625 127 c 0
 80.1259765625 147 105.125976562 100 126.125976562 88 c 0
 154.125976562 72 208.125976562 63 238.125976562 79 c 0
 260.125976562 91 279.125976562 123 288.125976562 146 c 0
 335.125976562 266 321.125976562 408 314.125976562 534 c 0
 312.125976562 567 306.125976562 603 308.125976562 636 c 0
 309.125976562 648 316.125976562 658 328.125976562 661 c 0
EndSplineSet
EndChar

StartChar: W
Encoding: 87 87 83
Width: 619
VWidth: 0
Flags: HW
LayerCount: 2
Back
Fore
SplineSet
307.380859375 114 m 1
 282.380859375 72 248.380859375 10 193.380859375 4 c 0
 177.380859375 2 158.380859375 8 143.380859375 13 c 0
 127.380859375 18 115.380859375 28 106.380859375 42 c 0
 97.380859375 56 88.380859375 70 82.380859375 86 c 0
 38.380859375 210 47.380859375 354 47.380859375 484 c 0
 47.380859375 525 47.380859375 566 43.380859375 606 c 0
 41.380859375 623 34.380859375 640 49.380859375 653 c 0
 65.380859375 666 87.380859375 657 93.380859375 638 c 0
 104.380859375 603 99.380859375 565 102.380859375 530 c 0
 112.380859375 410 98.380859375 291 121.380859375 172 c 0
 128.380859375 138 137.380859375 65 183.380859375 64 c 0
 203.380859375 64 225.380859375 95 235.380859375 110 c 0
 276.380859375 170 278.380859375 234 272.380859375 303 c 0
 270.380859375 328 274.380859375 372 311.380859375 365 c 0
 343.380859375 359 341.380859375 315 341.380859375 290 c 0
 341.380859375 228 340.380859375 167 376.380859375 112 c 0
 389.380859375 93 411.380859375 68 437.380859375 70 c 0
 448.380859375 71 458.380859375 84 464.380859375 92 c 0
 484.380859375 117 496.380859375 149 503.380859375 180 c 0
 528.380859375 299 529.380859375 427 512.380859375 547 c 0
 508.380859375 575 491.380859375 612 496.380859375 640 c 0
 499.380859375 660 522.380859375 671 539.380859375 659 c 0
 551.380859375 650 552.380859375 633 555.380859375 620 c 0
 563.380859375 584 570.380859375 548 573.380859375 512 c 0
 580.380859375 433 581.380859375 355 575.380859375 276 c 0
 570.380859375 207 560.380859375 139 526.380859375 78 c 0
 512.380859375 53 492.380859375 26 465.380859375 14 c 0
 397.380859375 -16 330.380859375 60 307.380859375 114 c 1
EndSplineSet
EndChar

StartChar: six
Encoding: 54 54 84
Width: 484
VWidth: 0
Flags: HW
LayerCount: 2
Back
Fore
SplineSet
100 244 m 1
 105 269 124 294 140 314 c 0
 200 388 305 427 386 364 c 0
 399 354 410 340 419 326 c 0
 430 309 437 289 441 269 c 0
 460 163 389 68 310 8 c 0
 282 -14 241 -38 204 -40 c 0
 153 -42 109 0 85 40 c 0
 51 98 40 169 40 236 c 0
 40 338 59 439 92 536 c 0
 108 582 126 632 166 663 c 0
 183 676 217 688 231 666 c 0
 250 637 214 629 198 616 c 0
 181 602 171 586 163 566 c 0
 131 493 113 414 104 335 c 0
 101 307 92 271 100 244 c 1
285 339 m 0
 188 325 142 226 131 139 c 0
 129 124 125 104 127 89 c 0
 132 59 172 18 204 21 c 0
 227 23 256 43 274 56 c 0
 330 98 373 150 383 220 c 0
 391 277 350 349 285 339 c 0
EndSplineSet
EndChar

StartChar: equal
Encoding: 61 61 85
Width: 373
VWidth: 0
Flags: HW
LayerCount: 2
Back
Fore
SplineSet
169.546875 435 m 0
 206.546875 438 260.546875 444 295.546875 431 c 0
 320.546875 421 322.546875 384 293.546875 378 c 0
 280.546875 376 266.546875 379 253.546875 378 c 0
 203.546875 375 154.546875 377 104.546875 377 c 0
 84.546875 377 52.546875 373 42.546875 394 c 0
 35.546875 409 43.546875 428 59.546875 432 c 0
 92.546875 441 135.546875 432 169.546875 435 c 0
286.546875 275 m 0
 298.546875 276 313.546875 277 323.546875 269 c 0
 337.546875 258 336.546875 234 321.546875 224 c 0
 304.546875 213 276.546875 216 257.546875 214 c 0
 203.546875 209 149.546875 208 95.546875 208 c 0
 72.546875 208 35.546875 216 49.546875 248 c 0
 59.546875 271 91.546875 262 111.546875 264 c 0
 169.546875 268 228.546875 269 286.546875 275 c 0
EndSplineSet
EndChar

StartChar: asciitilde
Encoding: 126 126 86
Width: 421
VWidth: 0
Flags: HW
LayerCount: 2
Back
Fore
SplineSet
349.544921875 406 m 0
 386.544921875 408 383.544921875 360 377.544921875 336 c 0
 365.544921875 292 329.544921875 259 284.544921875 251 c 0
 246.544921875 244 211.544921875 269 183.544921875 291 c 0
 171.544921875 301 157.544921875 316 142.544921875 320 c 0
 101.544921875 331 101.544921875 264 67.544921875 264 c 0
 40.544921875 264 34.544921875 292 44.544921875 312 c 0
 59.544921875 343 89.544921875 371 123.544921875 378 c 0
 166.544921875 387 195.544921875 357 227.544921875 334 c 0
 241.544921875 324 258.544921875 309 276.544921875 311 c 0
 300.544921875 314 320.544921875 339 324.544921875 362 c 0
 327.544921875 380 322.544921875 404 349.544921875 406 c 0
EndSplineSet
EndChar

StartChar: comma
Encoding: 44 44 87
Width: 157
VWidth: 0
Flags: HW
LayerCount: 2
Back
Fore
SplineSet
85.0859375 105 m 0
 101.0859375 108 116.0859375 94 117.0859375 78 c 0
 118.0859375 44 115.0859375 -32 72.0859375 -39 c 0
 57.0859375 -42 42.0859375 -31 40.0859375 -16 c 0
 39.0859375 -2 47.0859375 7 51.0859375 20 c 0
 59.0859375 45 52.0859375 99 85.0859375 105 c 0
EndSplineSet
EndChar

StartChar: braceright
Encoding: 125 125 88
Width: 379
VWidth: 0
Flags: HW
LayerCount: 2
Back
Fore
SplineSet
232.630859375 262 m 1
 242.630859375 203 245.630859375 142 245.630859375 82 c 0
 245.630859375 47 245.630859375 9 231.630859375 -24 c 0
 216.630859375 -61 163.630859375 -62 130.630859375 -54 c 0
 116.630859375 -51 100.630859375 -47 94.630859375 -32 c 0
 88.630859375 -16 99.630859375 4 117.630859375 5 c 0
 134.630859375 6 172.630859375 -16 181.630859375 8 c 0
 191.630859375 35 189.630859375 71 187.630859375 99 c 0
 184.630859375 142 183.630859375 184 177.630859375 226 c 0
 174.630859375 247 175.630859375 275 168.630859375 295 c 0
 164.630859375 306 155.630859375 315 151.630859375 326 c 0
 142.630859375 348 139.630859375 373 137.630859375 397 c 0
 133.630859375 438 131.630859375 480 131.630859375 522 c 0
 131.630859375 549 134.630859375 582 124.630859375 608 c 0
 121.630859375 616 117.630859375 629 108.630859375 631 c 0
 86.630859375 635 68.630859375 595 45.630859375 624 c 0
 42.630859375 627 41.630859375 632 40.630859375 636 c 0
 33.630859375 668 86.630859375 690 112.630859375 688 c 0
 151.630859375 685 171.630859375 652 181.630859375 618 c 0
 194.630859375 575 188.630859375 524 190.630859375 480 c 0
 191.630859375 463 189.630859375 440 196.630859375 424 c 1
 222.630859375 475 294.630859375 458 323.630859375 420 c 0
 370.630859375 359 300.630859375 263 232.630859375 262 c 1
228.630859375 322 m 1
 250.630859375 323 286.630859375 354 276.630859375 380 c 0
 272.630859375 390 255.630859375 400 246.630859375 391 c 0
 236.630859375 381 232.630859375 365 230.630859375 352 c 0
 228.630859375 342 227.630859375 332 228.630859375 322 c 1
EndSplineSet
EndChar

StartChar: c
Encoding: 99 99 89
Width: 369
VWidth: 0
Flags: HW
LayerCount: 2
Back
Fore
SplineSet
169.874023438 384 m 4
 205.874023438 388 297.874023438 367 285.874023438 315 c 4
 281.874023438 299 264.874023438 291 249.874023438 296 c 4
 239.874023438 300 235.874023438 309 227.874023438 315 c 4
 206.874023438 330 176.874023438 331 153.874023438 320 c 4
 129.874023438 309 118.874023438 268 110.874023438 244 c 0
 88.8740234375 177 105.874023438 88 181.874023438 63 c 0
 210.874023438 53 238.874023438 61 259.874023438 84 c 0
 268.874023438 94 272.874023438 107 281.874023438 116 c 0
 293.874023438 128 314.874023438 126 324.874023438 112 c 0
 334.874023438 98 325.874023438 83 318.874023438 70 c 0
 301.874023438 41 278.874023438 16 245.874023438 6 c 0
 158.874023438 -22 71.8740234375 48 46.8740234375 130 c 0
 33.8740234375 173 40.8740234375 222 54.8740234375 264 c 0
 72.8740234375 319 108.874023438 377 169.874023438 384 c 4
EndSplineSet
EndChar

StartChar: m
Encoding: 109 109 90
Width: 586
VWidth: 0
Flags: HW
LayerCount: 2
Back
Fore
SplineSet
108.559570312 324 m 1
 121.559570312 380 211.559570312 416 257.559570312 381 c 0
 287.559570312 358 294.559570312 316 304.559570312 282 c 1
 313.559570312 300 323.559570312 318 337.559570312 334 c 0
 379.559570312 383 437.559570312 384 472.559570312 328 c 0
 511.559570312 265 525.559570312 187 532.559570312 114 c 0
 535.559570312 86 537.559570312 68 534.559570312 40 c 4
 533.559570312 28 532.559570312 15 522.559570312 7 c 4
 504.559570312 -8 479.559570312 6 478.559570312 28 c 4
 474.889648438 123.430664062 469.190645548 228.718436021 421.559570312 298 c 0
 417.559570312 304 412.559570312 313 404.559570312 312 c 0
 388.559570312 311 373.559570312 284 366.559570312 272 c 0
 345.559570312 236 339.559570312 191 332.559570312 150 c 0
 329.559570312 131 325.559570312 106 304.559570312 98 c 0
 284.559570312 91 268.559570312 108 264.559570312 126 c 0
 253.559570312 178 254.559570312 232 241.559570312 284 c 0
 238.559570312 297 230.559570312 333 213.559570312 334 c 0
 173.559570312 336 156.559570312 288 147.559570312 258 c 0
 129.559570312 198 124.559570312 130 122.559570312 67 c 0
 121.559570312 44 126.559570312 23 106.559570312 7 c 0
 93.5595703125 -4 71.5595703125 0 63.5595703125 16 c 0
 56.5595703125 31 58.5595703125 36 58.5595703125 52 c 0
 58.5595703125 133 52.5595703125 213 52.5595703125 294 c 0
 52.5595703125 316 48.5595703125 340 50.5595703125 362 c 0
 52.5595703125 384 82.5595703125 395 97.5595703125 378 c 0
 108.559570312 365 106.559570312 340 106.559570312 324 c 1
 108.559570312 324 l 1
EndSplineSet
EndChar

StartChar: G
Encoding: 71 71 91
Width: 546
VWidth: 0
Flags: HW
LayerCount: 2
Back
Fore
SplineSet
445.73828125 66 m 1
 355.73828125 -38 148.73828125 -20 76.73828125 100 c 0
 57.73828125 131 51.73828125 165 45.73828125 200 c 0
 28.73828125 302 49.73828125 420 105.73828125 508 c 0
 122.73828125 535 139.73828125 564 163.73828125 585 c 0
 215.73828125 629 278.73828125 657 345.73828125 631 c 0
 381.73828125 617 434.73828125 565 410.73828125 522 c 0
 402.73828125 507 380.73828125 505 368.73828125 517 c 0
 359.73828125 526 363.73828125 535 359.73828125 545 c 0
 353.73828125 562 332.73828125 578 315.73828125 582 c 0
 261.73828125 596 208.73828125 555 178.73828125 512 c 0
 163.73828125 490 147.73828125 467 136.73828125 442 c 0
 126.73828125 420 120.73828125 395 114.73828125 372 c 0
 89.73828125 273 83.73828125 128 193.73828125 78 c 0
 213.73828125 69 233.73828125 64 255.73828125 61 c 0
 283.73828125 57 313.73828125 54 341.73828125 63 c 0
 396.73828125 81 416.73828125 128 424.73828125 182 c 0
 428.73828125 212 417.73828125 238 445.73828125 260 c 1
 419.73828125 263 393.73828125 264 367.73828125 268 c 0
 343.73828125 271 304.73828125 273 285.73828125 289 c 0
 267.73828125 305 266.73828125 338 291.73828125 348 c 0
 312.73828125 356 320.73828125 334 337.73828125 330 c 0
 368.73828125 322 403.73828125 320 435.73828125 320 c 0
 453.73828125 320 475.73828125 323 488.73828125 308 c 0
 503.73828125 291 505.73828125 263 505.73828125 242 c 0
 505.73828125 200 504.73828125 158 503.73828125 116 c 0
 503.73828125 89 502.73828125 64 502.73828125 37 c 0
 502.73828125 24 505.73828125 10 496.73828125 0 c 0
 484.73828125 -14 461.73828125 -12 452.73828125 4 c 0
 443.73828125 19 443.73828125 49 445.73828125 66 c 1
EndSplineSet
EndChar

StartChar: K
Encoding: 75 75 92
Width: 450
VWidth: 0
Flags: HW
LayerCount: 2
Back
Fore
SplineSet
103.881835938 220 m 1
 109.881835938 198 104.881835938 169 104.881835938 147 c 0
 104.881835938 99 109.881835938 48 102.881835938 1 c 0
 98.8818359375 -24 66.8818359375 -35 52.8818359375 -12 c 0
 45.8818359375 0 48.8818359375 15 47.8818359375 28 c 0
 43.8818359375 67 45.8818359375 107 45.8818359375 146 c 0
 45.8818359375 276 51.8818359375 408 42.8818359375 538 c 0
 40.8818359375 563 35.8818359375 597 46.8818359375 620 c 0
 54.8818359375 636 75.8818359375 645 90.8818359375 631 c 0
 105.881835938 617 95.8818359375 581 96.8818359375 562 c 0
 97.8818359375 515 99.8818359375 467 102.881835938 420 c 0
 103.881835938 404 99.8818359375 384 105.881835938 368 c 1
 115.881835938 389 139.881835938 409 155.881835938 426 c 0
 185.881835938 457 216.881835938 489 243.881835938 524 c 0
 256.881835938 541 271.881835938 559 281.881835938 578 c 0
 287.881835938 589 288.881835938 603 298.881835938 612 c 0
 321.881835938 631 346.881835938 604 341.881835938 580 c 0
 335.881835938 551 315.881835938 525 298.881835938 502 c 0
 263.881835938 455 222.881835938 412 183.881835938 368 c 2
 135.881835938 314 l 2
 130.881835938 309 120.881835938 300 122.881835938 292 c 0
 124.881835938 284 134.881835938 277 139.881835938 272 c 0
 157.881835938 254 176.881835938 240 197.881835938 225 c 0
 253.881835938 185 313.881835938 148 362.881835938 98 c 0
 376.881835938 84 400.881835938 67 407.881835938 48 c 0
 417.881835938 21 384.881835938 3 363.881835938 18 c 0
 334.881835938 38 311.881835938 69 283.881835938 91 c 0
 226.881835938 137 163.881835938 178 103.881835938 220 c 1
EndSplineSet
EndChar

StartChar: X
Encoding: 88 88 93
Width: 498
VWidth: 0
Flags: HW
LayerCount: 2
Back
Fore
SplineSet
250 256 m 1
 243 230 225 206 213 182 c 0
 183 124 153 66 118 12 c 0
 111 1 102 -13 90 -18 c 0
 72 -26 53 -13 52 6 c 0
 51 28 79 59 90 78 c 0
 122 135 151 194 181 252 c 0
 190 269 215 299 214 318 c 0
 214 326 205 335 201 342 c 0
 191 359 182 375 172 392 c 0
 140 446 106 499 75 554 c 0
 60 580 40 609 40 640 c 0
 40 665 72 678 89 658 c 0
 97 649 96 635 101 624 c 0
 110 604 122 586 133 568 c 0
 159 524 187 482 213 438 c 0
 225 419 240 399 248 378 c 1
 252 378 l 1
 262 409 284 438 300 466 c 0
 327 515 352 567 384 614 c 0
 399 636 441 643 440 606 c 0
 439 586 418 564 409 546 c 0
 382 493 353 440 324 388 c 0
 315 372 307 356 298 340 c 0
 295 334 288 326 288 318 c 0
 289 298 315 269 325 252 c 0
 357 197 389 141 421 86 c 0
 432 67 459 38 458 16 c 0
 457 -3 438 -16 420 -8 c 0
 409 -3 402 8 395 18 c 0
 362 67 333 119 303 170 c 0
 287 197 263 226 254 256 c 1
 250 256 l 1
EndSplineSet
EndChar

StartChar: seven
Encoding: 55 55 94
Width: 430
VWidth: 0
Flags: HW
LayerCount: 2
Back
Fore
SplineSet
328.087890625 594 m 1
 283.087890625 594 239.087890625 595 194.087890625 594 c 0
 164.087890625 593 134.087890625 589 104.087890625 594 c 0
 80.087890625 598 29.087890625 598 42.087890625 636 c 0
 53.087890625 668 106.087890625 648 130.087890625 648 c 0
 195.087890625 648 261.087890625 652 326.087890625 652 c 0
 361.087890625 652 392.087890625 643 390.087890625 602 c 0
 389.087890625 568 373.087890625 530 365.087890625 496 c 0
 337.087890625 371 291.087890625 251 264.087890625 126 c 0
 256.087890625 89 249.087890625 51 239.087890625 14 c 0
 234.087890625 -2 223.087890625 -17 204.087890625 -13 c 0
 190.087890625 -10 181.087890625 4 183.087890625 18 c 0
 188.087890625 56 201.087890625 95 207.087890625 133 c 0
 222.087890625 226 258.087890625 315 281.087890625 406 c 0
 291.087890625 448 302.087890625 489 312.087890625 531 c 0
 317.087890625 552 318.087890625 575 328.087890625 594 c 1
EndSplineSet
EndChar

StartChar: exclam
Encoding: 33 33 95
Width: 199
VWidth: 0
Flags: HW
LayerCount: 2
Back
Fore
SplineSet
108.4453125 645 m 0
 152.4453125 659 143.4453125 581 143.4453125 557 c 0
 144.4453125 461 136.4453125 364 140.4453125 268 c 0
 141.4453125 243 153.4453125 185 120.4453125 177 c 0
 75.4453125 165 83.4453125 246 81.4453125 271 c 0
 72.4453125 365 85.4453125 462 87.4453125 556 c 0
 88.4453125 581 76.4453125 635 108.4453125 645 c 0
85.4453125 75 m 0
 142.4453125 85 148.4453125 1 95.4453125 -9 c 0
 45.4453125 -18 41.4453125 67 85.4453125 75 c 0
EndSplineSet
EndChar

StartChar: underscore
Encoding: 95 95 96
Width: 419
VWidth: 0
Flags: HW
LayerCount: 2
Back
Fore
SplineSet
342.793945312 31 m 0
 373.793945312 35 395.793945312 -5 363.793945312 -21 c 0
 341.793945312 -32 308.793945312 -32 283.793945312 -34 c 0
 225.793945312 -38 168.793945312 -36 110.793945312 -30 c 0
 87.7939453125 -28 21.7939453125 -25 44.7939453125 16 c 0
 57.7939453125 40 97.7939453125 27 119.793945312 26 c 0
 194.793945312 23 268.793945312 21 342.793945312 31 c 0
EndSplineSet
EndChar

StartChar: period
Encoding: 46 46 97
Width: 143
VWidth: 0
Flags: HW
LayerCount: 2
Back
Fore
SplineSet
74.4599609375 79 m 0
 115.459960938 80 110.459960938 -7 72.4599609375 -8 c 0
 25.4599609375 -9 32.4599609375 78 74.4599609375 79 c 0
EndSplineSet
EndChar

StartChar: q
Encoding: 113 113 98
Width: 384
VWidth: 0
Flags: HW
LayerCount: 2
Back
Fore
SplineSet
277.862304688 132 m 1
 255.862304688 57 136.862304688 -50 67.8623046875 36 c 0
 59.8623046875 46 52.8623046875 58 48.8623046875 70 c 0
 21.8623046875 145 64.8623046875 260 111.862304688 319 c 0
 130.862304688 343 153.862304688 364 183.862304688 373 c 0
 220.862304688 384 262.862304688 352 293.862304688 332 c 0
 311.862304688 320 321.862304688 303 333.862304688 286 c 0
 354.862304688 254 336.862304688 211 336.862304688 178 c 0
 336.862304688 88 339.862304688 -21 339.862304688 -111 c 0
 339.862304688 -131 342.862304688 -159 334.862304688 -177 c 0
 327.862304688 -193 307.862304688 -197 293.862304688 -187 c 0
 274.862304688 -173 283.862304688 -128 283.862304688 -107 c 0
 283.862304688 -57 284.862304688 11 282.862304688 61 c 0
 281.862304688 84 284.862304688 110 277.862304688 132 c 1
197.862304688 318 m 0
 178.862304688 313 163.862304688 294 152.862304688 279 c 0
 125.862304688 241 106.862304688 181 100.862304688 135 c 0
 97.8623046875 108 104.862304688 59 141.862304688 67 c 0
 198.862304688 80 231.862304688 166 253.862304688 214 c 0
 260.862304688 229 275.862304688 254 274.862304688 270 c 0
 273.862304688 296 216.862304688 323 197.862304688 318 c 0
EndSplineSet
EndChar

StartChar: a.alt1
Encoding: 1114112 -1 100
Width: 484
VWidth: 0
Flags: HW
LayerCount: 2
Fore
SplineSet
346.264648438 134 m 1
 309.264648438 44 177.264648438 -47 88.2646484375 30 c 0
 20.2646484375 89 33.2646484375 199 71.2646484375 270 c 0
 88.2646484375 302 110.264648438 336 140.264648438 358 c 0
 185.264648438 391 251.264648438 397 298.264648438 364 c 0
 326.264648438 345 329.264648438 315 349.264648438 291 c 0
 356.264648438 282 369.264648438 283 376.264648438 272 c 0
 383.264648438 261 378.264648438 248 380.264648438 236 c 0
 383.264648438 212 390.264648438 187 397.264648438 164 c 0
 405.264648438 137 418.264648438 111 431.264648438 86 c 0
 437.264648438 73 454.264648438 38 449.264648438 23 c 0
 443.264648438 3 416.264648438 -3 402.264648438 13 c 0
 378.264648438 40 362.264648438 103 346.264648438 134 c 1
213.264648438 329 m 0
 140.264648438 317 100.264648438 216 100.264648438 150 c 0
 100.264648438 101 126.264648438 54 181.264648438 63 c 0
 238.264648438 72 280.264648438 126 299.264648438 176 c 0
 303.264648438 188 315.264648438 208 313.264648438 221 c 0
 312.264648438 228 304.566821324 233.09348134 302.264648438 240 c 0
 298.264648438 252 313 273 308 286 c 0
 295 320 250.251579527 335.080043467 213.264648438 329 c 0
EndSplineSet
EndChar
